<?xml version="1.0" encoding="UTF-8"?>
<svg id="Layer_1" data-name="Layer 1" xmlns="http://www.w3.org/2000/svg" xmlns:xlink="http://www.w3.org/1999/xlink" viewBox="0 0 207 359">
  <defs>
    <style>
      .gv-colors-1 {
        fill: #c55a11;
      }

      .gv-colors-2, .gv-colors-3 {
        fill: #fff;
      }

      .gv-colors-3, .gv-colors-4, .gv-colors-5, .gv-colors-6, .gv-colors-7 {
        font-family: ArialMT, Arial;
        font-size: 12px;
      }

      .gv-colors-5 {
        fill: #1a1a1a;
      }

      .gv-colors-8 {
        fill: #27e22b;
      }

      .gv-colors-9 {
        fill: #f7931e;
      }

      .gv-colors-10 {
        fill: #3fa9f5;
      }

      .gv-colors-11 {
        fill: #39b54a;
      }

      .gv-colors-12 {
        fill: #ffc000;
      }

      .gv-colors-13 {
        fill: lime;
      }

      .gv-colors-6 {
        fill: #4d4d4d;
      }

      .gv-colors-14 {
        fill: #ccc;
      }

      .gv-colors-15 {
        letter-spacing: -.018em;
      }

      .gv-colors-16 {
        fill: #f5ea14;
      }

      .gv-colors-7 {
        fill: #333;
      }

      .gv-colors-17 {
        fill: #231f20;
      }

      .gv-colors-18 {
        fill: red;
      }
    </style>
    <symbol id="ESTOP_LOOP_" data-name="ESTOP LOOP​" viewBox="0 0 12 12">
      <g>
        <rect class="gv-colors-2" x=".479" y=".5" width="11.021" height="11.011"/>
        <g>
          <path d="M12,0H0V12H12V0h0ZM.5,11.5V.5H11.5V11.5H.5Z"/>
          <path d="M6,3c1.654,0,3,1.346,3,3s-1.346,3-3,3-3-1.346-3-3,1.346-3,3-3m0-1C3.791,2,2,3.791,2,6s1.791,4,4,4,4-1.791,4-4-1.791-4-4-4h0Z"/>
        </g>
      </g>
    </symbol>
    <symbol id="PE2" viewBox="0 0 30 10">
      <g>
        <rect class="gv-colors-2" x="0" width="30" height="10"/>
        <polygon class="gv-colors-11" points="9 5 1 1 1 9 9 5"/>
        <rect class="gv-colors-11" x="27" y="1" width="2" height="8"/>
        <rect class="gv-colors-14" x="10" y="4" width="2" height="2"/>
        <rect class="gv-colors-14" x="13.5" y="4" width="2" height="2"/>
        <rect class="gv-colors-14" x="17" y="4" width="2" height="2"/>
        <rect class="gv-colors-14" x="20.5" y="4" width="2" height="2"/>
        <rect class="gv-colors-14" x="24" y="4" width="2" height="2"/>
      </g>
    </symbol>
    <symbol id="PLC" viewBox="0 0 14.426 7.257">
      <g>
        <rect class="gv-colors-2" x=".031" y=".05" width="14.364" height="7.158"/>
        <path class="gv-colors-17" d="M0,0V7.257H14.426V0H0ZM.495,6.762V.495H13.436L.89,6.762H.495Z"/>
      </g>
    </symbol>
    <symbol id="VFD" viewBox="0 0 12 12">
      <g>
        <circle class="gv-colors-2" cx="6" cy="6" r="5.478"/>
        <path d="M6,0C2.692,0,0,2.691,0,6s2.692,6,6,6,6-2.692,6-6S9.309,0,6,0ZM.522,6C.522,2.979,2.979,.521,6,.521c1.51,0,2.88,.615,3.872,1.606L2.128,9.872c-.992-.992-1.606-2.361-1.606-3.872Z"/>
      </g>
    </symbol>
  </defs>
  <g>
    <rect class="gv-colors-2" x="120.444" y="21.405" width="48" height="16"/>
    <g>
      <polygon class="gv-colors-2" points="124.044 26.241 130.372 29.405 124.044 32.569 124.044 26.241"/>
      <polygon class="gv-colors-9" points="122.044 23.005 122.044 35.805 134.844 29.405 122.044 23.005 122.044 23.005"/>
    </g>
    <g>
      <rect class="gv-colors-2" x="163.644" y="23.005" width="3.2" height="12.8"/>
      <polygon class="gv-colors-9" points="166.844 23.005 163.644 23.005 163.644 35.805 166.844 35.805 166.844 23.005 166.844 23.005"/>
    </g>
    <rect class="gv-colors-14" x="136.444" y="27.805" width="3.2" height="3.2"/>
    <rect class="gv-colors-14" x="142.044" y="27.805" width="3.2" height="3.2"/>
    <rect class="gv-colors-14" x="147.644" y="27.805" width="3.2" height="3.2"/>
    <rect class="gv-colors-14" x="153.244" y="27.805" width="3.2" height="3.2"/>
    <rect class="gv-colors-14" x="158.844" y="27.805" width="3.2" height="3.2"/>
  </g>
  <g>
    <rect class="gv-colors-16" x="120.693" y="129.469" width="15.5" height="15.5"/>
    <path d="M135.944,129.719v15h-15v-15h15m.5-.5h-16v16h16v-16h0Z"/>
  </g>
  <g>
    <path class="gv-colors-2" d="M128.443,142.052c-2.665,0-4.833-2.168-4.833-4.833s2.168-4.833,4.833-4.833,4.834,2.168,4.834,4.833-2.169,4.833-4.834,4.833Z"/>
    <path d="M128.444,132.886c2.389,0,4.333,1.944,4.333,4.333s-1.944,4.333-4.333,4.333-4.333-1.944-4.333-4.333,1.944-4.333,4.333-4.333m0-1c-2.945,0-5.333,2.388-5.333,5.333s2.388,5.333,5.333,5.333,5.333-2.388,5.333-5.333-2.388-5.333-5.333-5.333h0Z"/>
  </g>
  <g>
    <circle class="gv-colors-13" cx="128.835" cy="247.784" r="7.304"/>
    <path d="M128.835,239.784c-4.411,0-8,3.589-8,8s3.589,8,8,8,8-3.589,8-8-3.589-8-8-8Zm-7.304,8c0-4.028,3.277-7.305,7.304-7.305,2.014,0,3.84,.82,5.162,2.142l-10.325,10.325c-1.323-1.322-2.142-3.148-2.142-5.162Z"/>
  </g>
  <g>
    <circle class="gv-colors-18" cx="128.835" cy="270.326" r="7.304"/>
    <path d="M128.835,262.326c-4.411,0-8,3.589-8,8s3.589,8,8,8,8-3.589,8-8-3.589-8-8-8Zm-7.304,8c0-4.028,3.277-7.305,7.304-7.305,2.014,0,3.84,.82,5.162,2.142l-10.325,10.325c-1.323-1.322-2.142-3.148-2.142-5.162Z"/>
  </g>
  <use width="30" height="10" transform="translate(120.444 46.864) scale(1.6)" xlink:href="#PE2"/>
  <use width="14.426" height="7.257" transform="translate(120.14 328.938) scale(1.386)" xlink:href="#PLC"/>
  <g>
    <rect class="gv-colors-18" x="120.183" y="349.006" width="19.914" height="9.863"/>
    <path class="gv-colors-17" d="M120.14,348.938v10h20v-10h-20Zm.686,9.318v-8.636h17.94l-17.393,8.636h-.547Z"/>
  </g>
  <use width="12" height="12" transform="translate(120.444 104.352) scale(1.333)" xlink:href="#ESTOP_LOOP_"/>
  <use width="12" height="12" transform="translate(120.835 217.242) scale(1.333)" xlink:href="#VFD"/>
  <g>
    <g>
      <rect class="gv-colors-2" x="1.908" y="22.803" width="77" height="20.194" rx="2.5" ry="2.5"/>
      <path class="gv-colors-8" d="M76.408,24.303c.551,0,1,.448,1,1v15.194c0,.552-.449,1-1,1H4.408c-.551,0-1-.448-1-1v-15.194c0-.552,.449-1,1-1H76.408m0-3H4.408c-2.209,0-4,1.791-4,4v15.194c0,2.209,1.791,4,4,4H76.408c2.209,0,4-1.791,4-4v-15.194c0-2.209-1.791-4-4-4h0Z"/>
    </g>
    <text class="gv-colors-5" transform="translate(17.988 36.1)"><tspan x="0" y="0">Running</tspan></text>
  </g>
  <g>
    <g>
      <rect class="gv-colors-2" x="1.908" y="56.378" width="77" height="20.193" rx="2.5" ry="2.5"/>
      <path class="gv-colors-14" d="M76.408,57.878c.551,0,1,.448,1,1v15.193c0,.552-.449,1-1,1H4.408c-.551,0-1-.448-1-1v-15.193c0-.552,.449-1,1-1H76.408m0-3H4.408c-2.209,0-4,1.791-4,4v15.193c0,2.209,1.791,4,4,4H76.408c2.209,0,4-1.791,4-4v-15.193c0-2.209-1.791-4-4-4h0Z"/>
    </g>
    <text class="gv-colors-5" transform="translate(18.218 69.675)"><tspan x="0" y="0">Stopped</tspan></text>
  </g>
  <g>
    <g>
      <rect class="gv-colors-2" x="1.908" y="89.953" width="77" height="20.194" rx="2.5" ry="2.5"/>
      <path class="gv-colors-18" d="M76.408,91.453c.551,0,1,.448,1,1v15.194c0,.552-.449,1-1,1H4.408c-.551,0-1-.448-1-1v-15.194c0-.552,.449-1,1-1H76.408m0-3H4.408c-2.209,0-4,1.791-4,4v15.194c0,2.209,1.791,4,4,4H76.408c2.209,0,4-1.791,4-4v-15.194c0-2.209-1.791-4-4-4h0Z"/>
    </g>
    <text class="gv-colors-5" transform="translate(20.343 103.251)"><tspan x="0" y="0">Faulted</tspan></text>
  </g>
  <g>
    <g>
      <rect class="gv-colors-2" x="1.908" y="123.528" width="77" height="20.193" rx="2.5" ry="2.5"/>
      <path class="gv-colors-12" d="M76.408,125.028c.551,0,1,.448,1,1v15.194c0,.552-.449,1-1,1H4.408c-.551,0-1-.448-1-1v-15.194c0-.552,.449-1,1-1H76.408m0-3H4.408c-2.209,0-4,1.791-4,4v15.194c0,2.209,1.791,4,4,4H76.408c2.209,0,4-1.791,4-4v-15.194c0-2.209-1.791-4-4-4h0Z"/>
    </g>
    <text class="gv-colors-5" transform="translate(17.667 136.826)"><tspan x="0" y="0">Jammed</tspan></text>
  </g>
  <g>
    <rect class="gv-colors-13" x=".408" y="217.651" width="80" height="20" rx="4" ry="4"/>
    <text class="gv-colors-7" transform="translate(17.988 230.687)"><tspan x="0" y="0">Running</tspan></text>
  </g>
  <g>
    <rect class="gv-colors-12" x=".408" y="247.926" width="80" height="20" rx="4" ry="4"/>
    <text class="gv-colors-7" transform="translate(17.204 262.138)"><tspan x="0" y="0">75% Full</tspan></text>
  </g>
  <g>
    <rect class="gv-colors-10" x=".408" y="278.201" width="80" height="20" rx="4" ry="4"/>
    <text class="gv-colors-7" transform="translate(30.67 292.431)"><tspan x="0" y="0">Full</tspan></text>
  </g>
  <g>
    <rect class="gv-colors-18" x=".408" y="308.476" width="80" height="20" rx="4" ry="4"/>
    <text class="gv-colors-3" transform="translate(7.66 322.772)"><tspan x="0" y="0">Jam/Faulted</tspan></text>
  </g>
  <g>
    <rect class="gv-colors-1" x=".408" y="338.751" width="80" height="20" rx="4" ry="4"/>
    <text class="gv-colors-3" transform="translate(20.701 352.981)"><tspan x="0" y="0">Manual</tspan></text>
  </g>
  <text class="gv-colors-4" transform="translate(.059 8.798)"><tspan x="0" y="0">Conveyor</tspan></text>
  <text class="gv-colors-4" transform="translate(120.14 11.186)"><tspan x="0" y="0">Photoeye</tspan></text>
  <text class="gv-colors-4" transform="translate(120.444 94.852)"><tspan x="0" y="0">Estop</tspan></text>
  <text class="gv-colors-4" transform="translate(120.14 203.285)"><tspan x="0" y="0">Motor</tspan></text>
  <text class="gv-colors-4" transform="translate(120.14 313.849)"><tspan x="0" y="0">Device</tspan></text>
  <text class="gv-colors-4" transform="translate(.467 203.285)"><tspan x="0" y="0">Hamper</tspan></text>
  <text class="gv-colors-6" transform="translate(146.658 117.685)"><tspan x="0" y="0">Ok</tspan></text>
  <text class="gv-colors-6" transform="translate(175.658 33.002)"><tspan x="0" y="0">O</tspan><tspan class="gv-colors-15" x="9.334" y="0">f</tspan><tspan x="12.451" y="0">f</tspan></text>
  <text class="gv-colors-6" transform="translate(175.658 58.529)"><tspan x="0" y="0">On</tspan></text>
  <text class="gv-colors-6" transform="translate(146.31 143.096)"><tspan x="0" y="0">Pressed</tspan></text>
  <text class="gv-colors-6" transform="translate(146.682 229.183)"><tspan x="0" y="0">Stopped</tspan></text>
  <text class="gv-colors-6" transform="translate(146.286 251.127)"><tspan x="0" y="0">Running</tspan></text>
  <text class="gv-colors-6" transform="translate(146.25 274.595)"><tspan x="0" y="0">Faulted</tspan></text>
  <text class="gv-colors-6" transform="translate(146.634 338.47)"><tspan x="0" y="0">Comm Ok</tspan></text>
  <text class="gv-colors-6" transform="translate(146.634 358.47)"><tspan x="0" y="0">Comm Nok</tspan></text>
</svg>