<?xml version="1.0" encoding="UTF-8"?>
<svg id="Layer_1" data-name="Layer 1" xmlns="http://www.w3.org/2000/svg" xmlns:xlink="http://www.w3.org/1999/xlink" viewBox="0 0 614 469">
  <defs>
    <style>
      .cls-1 {
        fill: #fff;
      }

      .cls-2 {
        stroke-width: 2px;
      }

      .cls-2, .cls-3, .cls-4, .cls-5, .cls-6 {
        fill: none;
      }

      .cls-2, .cls-4, .cls-6 {
        stroke-miterlimit: 10;
      }

      .cls-2, .cls-6 {
        stroke: #ccc;
      }

      .cls-3 {
        stroke: #e6e6e6;
        stroke-linecap: round;
        stroke-linejoin: round;
      }

      .cls-4 {
        stroke: #f2f2f2;
        stroke-width: 4px;
      }

      .cls-7 {
        fill: #d0d2d3;
      }

      .cls-8 {
        fill: #e6e6e6;
      }

      .cls-9 {
        fill: #27e22b;
      }

      .cls-10 {
        fill: #39b54a;
      }

      .cls-11 {
        fill: #404041;
        font-family: SegoeUI-Semibold, 'Segoe UI';
        font-size: 11.244px;
        font-weight: 700;
      }

      .cls-12 {
        clip-path: url(#clippath);
      }

      .cls-13 {
        fill: #999;
      }

      .cls-14 {
        fill: #ccc;
      }

      .cls-15 {
        fill: #f2f2f2;
      }
      .cursor-pointer {
        cursor:pointer;
      }
    </style>

  </defs>
  <g>
    <path class="cls-15" d="M24.712,5.573V23.136c0,.626,.508,1.134,1.134,1.134h6.725c.626,0,1.134,.508,1.134,1.134v16.598c0,.626-.508,1.134-1.134,1.134h-1.709c-.626,0-1.134,.508-1.134,1.134v.083c0,.626,.508,1.134,1.134,1.134h1.709c.626,0,1.134,.508,1.134,1.134v11.568c0,.626-.508,1.134-1.134,1.134h-1.709c-.626,0-1.134,.508-1.134,1.134h0c0,.626,.508,1.134,1.134,1.134h1.709c.626,0,1.134,.508,1.134,1.134v10.449c0,.459-.277,.874-.702,1.049l-11.104,4.576c-.425,.175-.702,.589-.702,1.049v3.261c0,.626,.508,1.134,1.134,1.134h10.24c.626,0,1.134,.508,1.134,1.134v4.554c0,.626-.508,1.134-1.134,1.134h-.778c-.626,0-1.134,.508-1.134,1.134v7.907c0,.626,.508,1.134,1.134,1.134h44.142c.626,0,1.134-.508,1.134-1.134v-12.054c0-.626-.508-1.134-1.134-1.134h-.454c-.626,0-1.134,.508-1.134,1.134v1.879c0,.626-.508,1.134-1.134,1.134h-1.312c-.626,0-1.134-.508-1.134-1.134v-4.925c0-.626,.508-1.134,1.134-1.134h4.034c.626,0,1.134-.508,1.134-1.134v-.259c0-.626,.508-1.134,1.134-1.134h1.361c.626,0,1.134-.508,1.134-1.134v-1.944c0-.626-.508-1.134-1.134-1.134h-1.361c-.626,0-1.134-.508-1.134-1.134v-1.102c0-.626-.508-1.134-1.134-1.134h-4.034c-.626,0-1.134-.508-1.134-1.134v-9.901c0-.626,.508-1.134,1.134-1.134h1.733c.626,0,1.134-.508,1.134-1.134h0c0-.626-.508-1.134-1.134-1.134h-1.733c-.626,0-1.134-.508-1.134-1.134v-11.568c0-.626,.508-1.134,1.134-1.134h1.733c.626,0,1.134-.508,1.134-1.134v-.083c0-.626-.508-1.134-1.134-1.134h-1.733c-.626,0-1.134-.508-1.134-1.134V25.404c0-.626,.508-1.134,1.134-1.134h6.799c.626,0,1.134-.508,1.134-1.134V5.573c0-.626-.508-1.134-1.134-1.134H25.846c-.626,0-1.134,.508-1.134,1.134Z"/>
    <rect class="cls-15" x="240.025" y="382.406" width="15.929" height="14.055" rx="3" ry="3"/>
    <rect class="cls-15" x="383.386" y="382.406" width="17.803" height="14.055" rx="3" ry="3"/>
    <rect class="cls-15" x="447.101" y="382.406" width="17.803" height="14.055" rx="3" ry="3"/>
    <rect class="cls-15" x="510.817" y="382.406" width="17.803" height="14.055" rx="3" ry="3"/>
    <rect class="cls-15" x="540.801" y="382.406" width="17.803" height="14.055" rx="3" ry="3"/>
    <rect class="cls-15" x="563.288" y="382.406" width="8.433" height="6.559" rx="2.475" ry="2.475"/>
    <rect class="cls-4" x="130.947" y="396.461" width="34.669" height="45.913" rx="6" ry="6"/>
    <rect class="cls-15" x="26.003" y="330.094" width="51.535" height="23.425" rx="4" ry="4"/>
    <g class="cursor-pointer bin" gui-bin-id="5" bin-key="0_0">
      <rect class="cls-9" x="26.037" y=".414" width="52.472" height="22.488" rx="4" ry="4"/>
<!--      <rect class="cls-9" x="67.231" y="130.383" width="28.11" height="58.094" rx="4" ry="4"/>-->
      <text class="cls-11" transform="translate(36 15) scale(1.074 1)"><tspan class="bin-label" x="0" y="0">?????</tspan></text>
    </g>


    <g>
      <path class="cls-8" d="M101.963,434.815v-30.795h57.779c1.654,0,3,1.346,3,3v24.795c0,1.654-1.346,3-3,3h-57.779Z"/>
      <path class="cls-9" d="M159.742,405.02c1.103,0,2,.897,2,2v24.795c0,1.103-.897,2-2,2h-56.779v-28.795h56.779m0-2h-58.779v32.795h58.779c2.209,0,4-1.791,4-4v-24.795c0-2.209-1.791-4-4-4h0Z"/>
    </g>
    <g>
      <rect class="cls-8" x="168.742" y="404.02" width="11.118" height="30.795" rx="3" ry="3"/>
      <path class="cls-9" d="M176.86,405.02c1.103,0,2,.897,2,2v24.795c0,1.103-.897,2-2,2h-5.118c-1.103,0-2-.897-2-2v-24.795c0-1.103,.897-2,2-2h5.118m0-2h-5.118c-2.209,0-4,1.791-4,4v24.795c0,2.209,1.791,4,4,4h5.118c2.209,0,4-1.791,4-4v-24.795c0-2.209-1.791-4-4-4h0Z"/>
    </g>
    <g>
      <rect class="cls-8" x="185.859" y="404.02" width="11.118" height="30.795" rx="3" ry="3"/>
      <path class="cls-9" d="M193.977,405.02c1.103,0,2,.897,2,2v24.795c0,1.103-.897,2-2,2h-5.118c-1.103,0-2-.897-2-2v-24.795c0-1.103,.897-2,2-2h5.118m0-2h-5.118c-2.209,0-4,1.791-4,4v24.795c0,2.209,1.791,4,4,4h5.118c2.209,0,4-1.791,4-4v-24.795c0-2.209-1.791-4-4-4h0Z"/>
    </g>
    <g>
      <rect class="cls-8" x="202.977" y="404.02" width="11.118" height="30.795" rx="3" ry="3"/>
      <path class="cls-9" d="M211.095,405.02c1.103,0,2,.897,2,2v24.795c0,1.103-.897,2-2,2h-5.118c-1.103,0-2-.897-2-2v-24.795c0-1.103,.897-2,2-2h5.118m0-2h-5.118c-2.209,0-4,1.791-4,4v24.795c0,2.209,1.791,4,4,4h5.118c2.209,0,4-1.791,4-4v-24.795c0-2.209-1.791-4-4-4h0Z"/>
    </g>
    <g>
      <rect class="cls-8" x="220.095" y="404.02" width="11.118" height="30.795" rx="3" ry="3"/>
      <path class="cls-9" d="M228.213,405.02c1.103,0,2,.897,2,2v24.795c0,1.103-.897,2-2,2h-5.118c-1.103,0-2-.897-2-2v-24.795c0-1.103,.897-2,2-2h5.118m0-2h-5.118c-2.209,0-4,1.791-4,4v24.795c0,2.209,1.791,4,4,4h5.118c2.209,0,4-1.791,4-4v-24.795c0-2.209-1.791-4-4-4h0Z"/>
    </g>
    <g>
      <rect class="cls-8" x="37.339" y="27.918" width="29.8" height="44.177" rx="3" ry="3"/>
      <path class="cls-9" d="M64.139,28.918c1.103,0,2,.897,2,2v38.176c0,1.103-.897,2-2,2h-23.8c-1.103,0-2-.897-2-2V30.918c0-1.103,.897-2,2-2h23.8m0-2h-23.8c-2.209,0-4,1.791-4,4v38.176c0,2.209,1.791,4,4,4h23.8c2.209,0,4-1.791,4-4V30.918c0-2.209-1.791-4-4-4h0Z"/>
    </g>
    <g>
      <path class="cls-8" d="M41.058,366.095V81.095c0-1.654,1.346-3,3-3h16.362c1.654,0,3,1.346,3,3V366.095h-22.362Z"/>
      <path class="cls-9" d="M60.42,79.094c1.103,0,2,.897,2,2V365.094h-20.362V81.094c0-1.103,.897-2,2-2h16.362m0-2h-16.362c-2.209,0-4,1.791-4,4V367.094h24.362V81.094c0-2.209-1.791-4-4-4h0Z"/>
    </g>
    <g class="cursor-pointer bin" gui-bin-id="3" bin-key="0_0">
      <rect class="cls-9" x="67.231" y="130.383" width="28.11" height="58.094" rx="4" ry="4"/>
      <text class="cls-11" transform="translate(85.244 175.094) rotate(-90) scale(1.074 1)"><tspan class="bin-label" x="0" y="0">?????</tspan></text>
    </g>
    <g class="cursor-pointer bin" gui-bin-id="1" bin-key="0_0">
      <rect class="cls-9" x="67.231" y="195.035" width="28.11" height="58.094" rx="4" ry="4"/>
      <text class="cls-11" transform="translate(85.245 238.641) rotate(-90) scale(1.074 1)"><tspan class="bin-label" x="0" y="0">?????</tspan></text>
    </g>
    <g class="cursor-pointer bin" gui-bin-id="4" bin-key="0_0">
      <rect class="cls-9" x="9.137" y="130.383" width="28.11" height="58.094" rx="4" ry="4"/>
      <text class="cls-11" transform="translate(27.151 175.533) rotate(-90) scale(1.074 1)"><tspan class="bin-label" x="0" y="0">?????</tspan></text>
    </g>
    <g class="cursor-pointer bin" gui-bin-id="2" bin-key="0_0">
      <rect class="cls-9" x="9.137" y="195.035" width="28.11" height="58.094" rx="4" ry="4"/>
      <text class="cls-11" transform="translate(27.151 239.771) rotate(-90) scale(1.074 1)"><tspan class="bin-label" x="0" y="0">?????</tspan></text>
    </g>
    <g>
      <path class="cls-8" d="M98.089,437.384c-35.726-.532-64.689-29.496-65.222-65.222h36.191c.519,15.774,13.256,28.511,29.03,29.03v36.192Z"/>
      <path class="cls-9" d="M68.106,373.162c.992,15.53,13.454,27.991,28.983,28.983v34.216c-34.381-1.041-62.158-28.819-63.199-63.199h34.216m1.936-2H31.86c0,37.13,30.1,67.229,67.229,67.229v-38.183c-16.042,0-29.047-13.005-29.047-29.047h0Z"/>
    </g>
    <g>
      <path class="cls-7" d="M549.928,412.859h33.28c1.159,0,2.1,.941,2.1,2.1v.711h-37.48v-.711c0-1.159,.941-2.1,2.1-2.1Z" transform="translate(152.304 980.832) rotate(-90)"/>
      <rect class="cls-7" x="554.387" y="412.859" width="37.48" height="2.811" transform="translate(158.863 987.391) rotate(-90)"/>
      <rect class="cls-7" x="560.946" y="412.859" width="37.48" height="2.811" transform="translate(165.422 993.95) rotate(-90)"/>
      <rect class="cls-7" x="567.505" y="412.859" width="37.48" height="2.811" transform="translate(171.981 1000.509) rotate(-90)"/>
      <rect class="cls-7" x="574.064" y="412.859" width="37.48" height="2.811" transform="translate(178.54 1007.068) rotate(-90)"/>
      <rect class="cls-7" x="580.623" y="412.859" width="37.48" height="2.811" transform="translate(185.099 1013.627) rotate(-90)"/>
      <rect class="cls-7" x="587.182" y="412.859" width="37.48" height="2.811" transform="translate(191.658 1020.186) rotate(-90)"/>
      <path class="cls-7" d="M593.428,412.859h37.48v.711c0,1.159-.941,2.1-2.1,2.1h-33.28c-1.159,0-2.1-.941-2.1-2.1v-.711h0Z" transform="translate(197.904 1026.432) rotate(-90)"/>
    </g>
    <rect class="cls-15" x="126.262" y="364.603" width="36.543" height="9.37" rx="3" ry="3"/>
    <rect class="cls-15" x="170.552" y="377.721" width="11.244" height="9.37" rx="3" ry="3"/>
    <g>
      <polyline class="cls-3" points="162.519 460.177 158.396 463.925 152.212 458.303"/>
      <rect class="cls-15" x="116.892" y="451.744" width="36.543" height="9.37" rx="3" ry="3"/>
      <rect class="cls-8" x="161.868" y="452.681" width="2.811" height="15.929" rx="1.061" ry="1.061"/>
    </g>
    <g>
      <g>
        <rect class="cls-8" x="237.286" y="393.955" width="100.132" height="42.976" rx="3" ry="3"/>
        <path class="cls-9" d="M334.418,394.955c1.103,0,2,.897,2,2v36.976c0,1.103-.897,2-2,2h-94.132c-1.103,0-2-.897-2-2v-36.976c0-1.103,.897-2,2-2h94.132m0-2h-94.132c-2.209,0-4,1.791-4,4v36.976c0,2.209,1.791,4,4,4h94.132c2.209,0,4-1.791,4-4v-36.976c0-2.209-1.791-4-4-4h0Z"/>
      </g>
      <g class="cls-12">
        <g>
          <line class="cls-6" x1="236.286" y1="397.235" x2="338.418" y2="397.235"/>
          <line class="cls-2" x1="236.286" y1="401.21" x2="338.418" y2="401.21"/>
          <line class="cls-6" x1="236.286" y1="405.185" x2="338.418" y2="405.185"/>
          <line class="cls-2" x1="236.286" y1="409.16" x2="338.418" y2="409.16"/>
          <line class="cls-6" x1="236.286" y1="413.135" x2="338.418" y2="413.135"/>
          <line class="cls-2" x1="236.286" y1="417.11" x2="338.418" y2="417.11"/>
          <line class="cls-6" x1="236.286" y1="421.085" x2="338.418" y2="421.085"/>
          <line class="cls-2" x1="236.286" y1="425.06" x2="338.418" y2="425.06"/>
          <line class="cls-6" x1="236.286" y1="429.035" x2="338.418" y2="429.035"/>
          <line class="cls-2" x1="236.286" y1="433.01" x2="338.418" y2="433.01"/>
        </g>
      </g>
    </g>
    <g>
      <g>
        <rect class="cls-8" x="341.292" y="388.655" width="219.131" height="53.576" rx="3" ry="3"/>
        <path class="cls-9" d="M557.423,389.655c1.103,0,2,.897,2,2v47.576c0,1.103-.897,2-2,2h-213.131c-1.103,0-2-.897-2-2v-47.576c0-1.103,.897-2,2-2h213.131m0-2h-213.131c-2.209,0-4,1.791-4,4v47.576c0,2.209,1.791,4,4,4h213.131c2.209,0,4-1.791,4-4v-47.576c0-2.209-1.791-4-4-4h0Z"/>
      </g>
      <path class="cls-13" d="M342.937,396.57h215.829v-4.268c0-1.105-.895-2-2-2h-211.829c-1.105,0-2,.895-2,2v4.268Z"/>
      <path class="cls-13" d="M342.937,434.307h215.829v4.268c0,1.105-.895,2-2,2h-211.829c-1.105,0-2-.895-2-2v-4.268Z"/>
    </g>
  </g>
  <g transform="translate(28.239 28.68) scale(1.2)">
    <rect class="cls-1" x="0" width="40" height="12"/>
    <polygon class="cls-10" points="11 6 1 1 1 11 11 6" style="fill:red;stroke:purple;stroke-width:1"/>
    <rect class="cls-10" x="36" y="1" width="3" height="10"/>
    <rect class="cls-14" x="13" y="5" width="2" height="2"/>
    <rect class="cls-14" x="17.75" y="5" width="2" height="2"/>
    <rect class="cls-14" x="22.5" y="5" width="2" height="2"/>
    <rect class="cls-14" x="27.25" y="5" width="2" height="2"/>
    <rect class="cls-14" x="32" y="5" width="2" height="2"/>
  </g>
  <g transform="translate(28.239 361.924) scale(1.2)">
    <rect class="cls-1" x="0" width="40" height="12"/>
    <polygon class="cls-10" points="11 6 1 1 1 11 11 6" style="fill:red;stroke:purple;stroke-width:1"/>
    <rect class="cls-10" x="36" y="1" width="3" height="10"/>
    <rect class="cls-14" x="13" y="5" width="2" height="2"/>
    <rect class="cls-14" x="17.75" y="5" width="2" height="2"/>
    <rect class="cls-14" x="22.5" y="5" width="2" height="2"/>
    <rect class="cls-14" x="27.25" y="5" width="2" height="2"/>
    <rect class="cls-14" x="32" y="5" width="2" height="2"/>
  </g>
  <g transform="translate(141.081 443.418) rotate(-90) scale(1.2)">
    <rect class="cls-1" x="0" width="40" height="12"/>
    <polygon class="cls-10" points="11 6 1 1 1 11 11 6" style="fill:red;stroke:purple;stroke-width:1"/>
    <rect class="cls-10" x="36" y="1" width="3" height="10"/>
    <rect class="cls-14" x="13" y="5" width="2" height="2"/>
    <rect class="cls-14" x="17.75" y="5" width="2" height="2"/>
    <rect class="cls-14" x="22.5" y="5" width="2" height="2"/>
    <rect class="cls-14" x="27.25" y="5" width="2" height="2"/>
    <rect class="cls-14" x="32" y="5" width="2" height="2"/>
  </g>


  <use width="40" height="12" transform="translate(116.317 443.418) rotate(-90) scale(1.2)" xlink:href="#PE2"/>
  <use width="40" height="12" transform="translate(93.763 443.418) rotate(-90) scale(1.2)" xlink:href="#PE2"/>
  <use width="40" height="12" transform="translate(158.538 443.418) rotate(-90) scale(1.2)" xlink:href="#PE2"/>
  <use width="40" height="12" transform="translate(227.111 443.418) rotate(-90) scale(1.2)" xlink:href="#PE2"/>
</svg>