<?xml version="1.0" encoding="UTF-8"?>
<svg id="Layer_1" data-name="Layer 1" xmlns="http://www.w3.org/2000/svg" xmlns:xlink="http://www.w3.org/1999/xlink" viewBox="0 0 600 461">
  <defs>
    <style>
      .cls-1 {
        fill: #fff;
      }

      .cls-2 {
        stroke-width: 2px;
      }

      .cls-2, .cls-3, .cls-4, .cls-5, .cls-6 {
        fill: none;
      }

      .cls-2, .cls-4, .cls-6 {
        stroke-miterlimit: 10;
      }

      .cls-2, .cls-6 {
        stroke: #ccc;
      }

      .cls-3 {
        stroke: #e6e6e6;
        stroke-linecap: round;
        stroke-linejoin: round;
      }

      .cls-4 {
        stroke: #f2f2f2;
        stroke-width: 4px;
      }

      .cls-7 {
        fill: #d0d2d3;
      }

      .cls-8 {
        fill: #e6e6e6;
      }

      .cls-9 {
        fill: #27e22b;
      }

      .cls-10 {
        fill: #39b54a;
      }

      .cls-11 {
        fill: #404041;
        font-family: SegoeUI-Semibold, 'Segoe UI';
        font-size: 11.244px;
        font-weight: 700;
      }

      .cls-12 {
        clip-path: url(#clippath);
      }

      .cls-13 {
        fill: #999;
      }

      .cls-14 {
        fill: #ccc;
      }

      .cls-15 {
        fill: #f2f2f2;
      }
    </style>
    <symbol id="PE2" viewBox="0 0 30 10">
      <g>
        <rect class="cls-1" x="0" width="30" height="10"/>
        <polygon class="cls-10" points="9 5 1 1 1 9 9 5"/>
        <rect class="cls-10" x="27" y="1" width="2" height="8"/>
        <rect class="cls-14" x="10" y="4" width="2" height="2"/>
        <rect class="cls-14" x="13.5" y="4" width="2" height="2"/>
        <rect class="cls-14" x="17" y="4" width="2" height="2"/>
        <rect class="cls-14" x="20.5" y="4" width="2" height="2"/>
        <rect class="cls-14" x="24" y="4" width="2" height="2"/>
      </g>
    </symbol>
    <clipPath id="clippath">
      <rect class="cls-5" x="225.038" y="387.971" width="96.832" height="39.676" rx="2.005" ry="2.005" transform="translate(546.908 815.618) rotate(180)"/>
    </clipPath>
  </defs>
  <path class="cls-15" d="M24.286,5.182V22.746c0,.626,.508,1.134,1.134,1.134h6.725c.626,0,1.134,.508,1.134,1.134v16.598c0,.626-.508,1.134-1.134,1.134h-1.709c-.626,0-1.134,.508-1.134,1.134v.083c0,.626,.508,1.134,1.134,1.134h1.709c.626,0,1.134,.508,1.134,1.134v11.568c0,.626-.508,1.134-1.134,1.134h-1.709c-.626,0-1.134,.508-1.134,1.134h0c0,.626,.508,1.134,1.134,1.134h1.709c.626,0,1.134,.508,1.134,1.134v10.449c0,.459-.277,.874-.702,1.049l-11.104,4.576c-.425,.175-.702,.589-.702,1.049v3.261c0,.626,.508,1.134,1.134,1.134h10.24c.626,0,1.134,.508,1.134,1.134v4.554c0,.626-.508,1.134-1.134,1.134h-.778c-.626,0-1.134,.508-1.134,1.134v7.907c0,.626,.508,1.134,1.134,1.134h44.142c.626,0,1.134-.508,1.134-1.134v-12.054c0-.626-.508-1.134-1.134-1.134h-.454c-.626,0-1.134,.508-1.134,1.134v1.879c0,.626-.508,1.134-1.134,1.134h-1.312c-.626,0-1.134-.508-1.134-1.134v-4.925c0-.626,.508-1.134,1.134-1.134h4.034c.626,0,1.134-.508,1.134-1.134v-.259c0-.626,.508-1.134,1.134-1.134h1.361c.626,0,1.134-.508,1.134-1.134v-1.944c0-.626-.508-1.134-1.134-1.134h-1.361c-.626,0-1.134-.508-1.134-1.134v-1.102c0-.626-.508-1.134-1.134-1.134h-4.034c-.626,0-1.134-.508-1.134-1.134v-9.901c0-.626,.508-1.134,1.134-1.134h1.733c.626,0,1.134-.508,1.134-1.134h0c0-.626-.508-1.134-1.134-1.134h-1.733c-.626,0-1.134-.508-1.134-1.134v-11.568c0-.626,.508-1.134,1.134-1.134h1.733c.626,0,1.134-.508,1.134-1.134v-.083c0-.626-.508-1.134-1.134-1.134h-1.733c-.626,0-1.134-.508-1.134-1.134V25.014c0-.626,.508-1.134,1.134-1.134h6.799c.626,0,1.134-.508,1.134-1.134V5.182c0-.626-.508-1.134-1.134-1.134H25.42c-.626,0-1.134,.508-1.134,1.134Z"/>
  <rect class="cls-15" x="226.128" y="374.773" width="15.929" height="14.055" rx="3" ry="3"/>
  <rect class="cls-15" x="369.488" y="374.773" width="17.803" height="14.055" rx="3" ry="3"/>
  <rect class="cls-15" x="433.203" y="374.773" width="17.803" height="14.055" rx="3" ry="3"/>
  <rect class="cls-15" x="496.919" y="374.773" width="17.803" height="14.055" rx="3" ry="3"/>
  <rect class="cls-15" x="526.903" y="374.773" width="17.803" height="14.055" rx="3" ry="3"/>
  <rect class="cls-15" x="549.391" y="374.773" width="8.433" height="6.559" rx="2.475" ry="2.475"/>
  <rect class="cls-4" x="130.554" y="388.828" width="34.669" height="45.913" rx="6" ry="6"/>
  <rect class="cls-15" x="25.611" y="323.238" width="51.535" height="23.425" rx="4" ry="4"/>
  <rect class="cls-9" x="25.611" y=".024" width="52.472" height="22.488" rx="4" ry="4"/>
  <g>
    <path class="cls-8" d="M101.57,427.182v-30.795h57.779c1.654,0,3,1.346,3,3v24.795c0,1.654-1.346,3-3,3h-57.779Z"/>
    <path class="cls-9" d="M159.349,397.387c1.103,0,2,.897,2,2v24.795c0,1.103-.897,2-2,2h-56.779v-28.795h56.779m0-2h-58.779v32.795h58.779c2.209,0,4-1.791,4-4v-24.795c0-2.209-1.791-4-4-4h0Z"/>
  </g>
  <g>
    <rect class="cls-8" x="166.223" y="396.387" width="11.118" height="30.795" rx="3" ry="3"/>
    <path class="cls-9" d="M174.341,397.387c1.103,0,2,.897,2,2v24.795c0,1.103-.897,2-2,2h-5.118c-1.103,0-2-.897-2-2v-24.795c0-1.103,.897-2,2-2h5.118m0-2h-5.118c-2.209,0-4,1.791-4,4v24.795c0,2.209,1.791,4,4,4h5.118c2.209,0,4-1.791,4-4v-24.795c0-2.209-1.791-4-4-4h0Z"/>
  </g>
  <g>
    <rect class="cls-8" x="180.278" y="396.387" width="11.118" height="30.795" rx="3" ry="3"/>
    <path class="cls-9" d="M188.396,397.387c1.103,0,2,.897,2,2v24.795c0,1.103-.897,2-2,2h-5.118c-1.103,0-2-.897-2-2v-24.795c0-1.103,.897-2,2-2h5.118m0-2h-5.118c-2.209,0-4,1.791-4,4v24.795c0,2.209,1.791,4,4,4h5.118c2.209,0,4-1.791,4-4v-24.795c0-2.209-1.791-4-4-4h0Z"/>
  </g>
  <g>
    <rect class="cls-8" x="194.333" y="396.387" width="11.118" height="30.795" rx="3" ry="3"/>
    <path class="cls-9" d="M202.451,397.387c1.103,0,2,.897,2,2v24.795c0,1.103-.897,2-2,2h-5.118c-1.103,0-2-.897-2-2v-24.795c0-1.103,.897-2,2-2h5.118m0-2h-5.118c-2.209,0-4,1.791-4,4v24.795c0,2.209,1.791,4,4,4h5.118c2.209,0,4-1.791,4-4v-24.795c0-2.209-1.791-4-4-4h0Z"/>
  </g>
  <g>
    <rect class="cls-8" x="208.388" y="396.387" width="11.118" height="30.795" rx="3" ry="3"/>
    <path class="cls-9" d="M216.506,397.387c1.103,0,2,.897,2,2v24.795c0,1.103-.897,2-2,2h-5.118c-1.103,0-2-.897-2-2v-24.795c0-1.103,.897-2,2-2h5.118m0-2h-5.118c-2.209,0-4,1.791-4,4v24.795c0,2.209,1.791,4,4,4h5.118c2.209,0,4-1.791,4-4v-24.795c0-2.209-1.791-4-4-4h0Z"/>
  </g>
  <g>
    <rect class="cls-8" x="36.947" y="25.323" width="29.8" height="44.176" rx="3" ry="3"/>
    <path class="cls-9" d="M63.746,26.323c1.103,0,2,.897,2,2v38.176c0,1.103-.897,2-2,2h-23.8c-1.103,0-2-.897-2-2V28.323c0-1.103,.897-2,2-2h23.8m0-2h-23.8c-2.209,0-4,1.791-4,4v38.176c0,2.209,1.791,4,4,4h23.8c2.209,0,4-1.791,4-4V28.323c0-2.209-1.791-4-4-4h0Z"/>
  </g>
  <g>
    <path class="cls-8" d="M40.666,360.655V76.313c0-1.654,1.346-3,3-3h16.362c1.654,0,3,1.346,3,3V360.655h-22.362Z"/>
    <path class="cls-9" d="M60.027,74.314c1.103,0,2,.897,2,2V359.655h-20.362V76.314c0-1.103,.897-2,2-2h16.362m0-2h-16.362c-2.209,0-4,1.791-4,4V361.655h24.362V76.314c0-2.209-1.791-4-4-4h0Z"/>
  </g>
  <g>
    <rect class="cls-9" x="66.839" y="123.526" width="28.11" height="58.094" rx="4" ry="4"/>
    <text class="cls-11" transform="translate(71.769 156.545) scale(1.074 1)"><tspan x="0" y="0">S0103</tspan></text>
  </g>
  <g>
    <rect class="cls-9" x="66.839" y="188.179" width="28.11" height="58.094" rx="4" ry="4"/>
    <text class="cls-11" transform="translate(71.769 221.184) scale(1.074 1)"><tspan x="0" y="0">S0101</tspan></text>
  </g>
  <g>
    <rect class="cls-9" x="8.745" y="123.526" width="28.11" height="58.094" rx="4" ry="4"/>
    <text class="cls-11" transform="translate(-.324 156.545) scale(1.074 1)"><tspan x="0" y="0">S0104</tspan></text>
  </g>
  <g>
    <rect class="cls-9" x="8.745" y="188.179" width="28.11" height="58.094" rx="4" ry="4"/>
    <text class="cls-11" transform="translate(-.071 221.184) scale(1.074 1)"><tspan x="0" y="0">S0102</tspan></text>
  </g>
  <g>
    <path class="cls-8" d="M97.696,429.751c-35.726-.532-64.689-29.496-65.222-65.222h36.191c.519,15.774,13.256,28.512,29.03,29.03v36.192Z"/>
    <path class="cls-9" d="M67.713,365.529c.992,15.53,13.454,27.991,28.983,28.983v34.216c-34.381-1.041-62.158-28.818-63.199-63.199h34.216m1.936-2H31.467c0,37.13,30.1,67.229,67.229,67.229v-38.182c-16.042,0-29.047-13.005-29.047-29.047h0Z"/>
  </g>
  <g>
    <path class="cls-7" d="M536.03,405.225h33.28c1.159,0,2.1,.941,2.1,2.1v.711h-37.48v-.711c0-1.159,.941-2.1,2.1-2.1Z" transform="translate(146.04 959.301) rotate(-90)"/>
    <rect class="cls-7" x="540.489" y="405.225" width="37.48" height="2.811" transform="translate(152.599 965.86) rotate(-90)"/>
    <rect class="cls-7" x="547.048" y="405.225" width="37.48" height="2.811" transform="translate(159.158 972.419) rotate(-90)"/>
    <rect class="cls-7" x="553.607" y="405.225" width="37.48" height="2.811" transform="translate(165.717 978.978) rotate(-90)"/>
    <rect class="cls-7" x="560.166" y="405.225" width="37.48" height="2.811" transform="translate(172.276 985.536) rotate(-90)"/>
    <rect class="cls-7" x="566.725" y="405.225" width="37.48" height="2.811" transform="translate(178.835 992.095) rotate(-90)"/>
    <rect class="cls-7" x="573.284" y="405.225" width="37.48" height="2.811" transform="translate(185.393 998.654) rotate(-90)"/>
    <path class="cls-7" d="M579.531,405.225h37.48v.711c0,1.159-.941,2.1-2.1,2.1h-33.28c-1.159,0-2.1-.941-2.1-2.1v-.711h0Z" transform="translate(191.64 1004.901) rotate(-90)"/>
  </g>
  <rect class="cls-15" x="125.869" y="356.97" width="36.543" height="9.37" rx="3" ry="3"/>
  <rect class="cls-15" x="168.034" y="370.088" width="11.244" height="9.37" rx="3" ry="3"/>
  <g>
    <polyline class="cls-3" points="162.126 452.543 158.004 456.291 151.82 450.669"/>
    <rect class="cls-15" x="116.499" y="444.11" width="36.543" height="9.37" rx="3" ry="3"/>
    <rect class="cls-8" x="161.475" y="445.047" width="2.811" height="15.929" rx="1.061" ry="1.061"/>
  </g>
  <g>
    <g>
      <rect class="cls-8" x="223.388" y="386.321" width="100.133" height="42.976" rx="3" ry="3"/>
      <path class="cls-9" d="M320.52,387.321c1.103,0,2,.897,2,2v36.976c0,1.103-.897,2-2,2h-94.132c-1.103,0-2-.897-2-2v-36.976c0-1.103,.897-2,2-2h94.132m0-2h-94.132c-2.209,0-4,1.791-4,4v36.976c0,2.209,1.791,4,4,4h94.132c2.209,0,4-1.791,4-4v-36.976c0-2.209-1.791-4-4-4h0Z"/>
    </g>
    <g class="cls-12">
      <g>
        <line class="cls-6" x1="222.388" y1="389.602" x2="324.52" y2="389.602"/>
        <line class="cls-2" x1="222.388" y1="393.577" x2="324.52" y2="393.577"/>
        <line class="cls-6" x1="222.388" y1="397.552" x2="324.52" y2="397.552"/>
        <line class="cls-2" x1="222.388" y1="401.526" x2="324.52" y2="401.526"/>
        <line class="cls-6" x1="222.388" y1="405.501" x2="324.52" y2="405.501"/>
        <line class="cls-2" x1="222.388" y1="409.476" x2="324.52" y2="409.476"/>
        <line class="cls-6" x1="222.388" y1="413.451" x2="324.52" y2="413.451"/>
        <line class="cls-2" x1="222.388" y1="417.426" x2="324.52" y2="417.426"/>
        <line class="cls-6" x1="222.388" y1="421.401" x2="324.52" y2="421.401"/>
        <line class="cls-2" x1="222.388" y1="425.376" x2="324.52" y2="425.376"/>
      </g>
    </g>
  </g>
  <g>
    <g>
      <rect class="cls-8" x="327.394" y="381.021" width="219.13" height="53.575" rx="3" ry="3"/>
      <path class="cls-9" d="M543.525,382.021c1.103,0,2,.897,2,2v47.576c0,1.103-.897,2-2,2h-213.131c-1.103,0-2-.897-2-2v-47.576c0-1.103,.897-2,2-2h213.131m0-2h-213.131c-2.209,0-4,1.791-4,4v47.576c0,2.209,1.791,4,4,4h213.131c2.209,0,4-1.791,4-4v-47.576c0-2.209-1.791-4-4-4h0Z"/>
    </g>
    <path class="cls-13" d="M329.039,388.937h215.829v-4.268c0-1.105-.895-2-2-2h-211.829c-1.105,0-2,.895-2,2v4.268Z"/>
    <path class="cls-13" d="M329.039,426.674h215.829v4.268c0,1.105-.895,2-2,2h-211.829c-1.105,0-2-.895-2-2v-4.268Z"/>
  </g>
  <use width="30" height="10" transform="translate(33.847 27.284) scale(1.2)" xlink:href="#PE2"/>
  <use width="30" height="10" transform="translate(33.847 355.655) scale(1.2)" xlink:href="#PE2"/>
  <use width="30" height="10" transform="translate(141.889 431.771) rotate(-90) scale(1.2)" xlink:href="#PE2"/>
  <use width="30" height="10" transform="translate(117.124 431.771) rotate(-90) scale(1.2)" xlink:href="#PE2"/>
  <use width="30" height="10" transform="translate(94.57 431.771) rotate(-90) scale(1.2)" xlink:href="#PE2"/>
  <use width="30" height="10" transform="translate(159.223 431.771) rotate(-90) scale(1.2)" xlink:href="#PE2"/>
  <use width="30" height="10" transform="translate(212.413 431.771) rotate(-90) scale(1.2)" xlink:href="#PE2"/>
</svg>