<?xml version="1.0" encoding="UTF-8"?>
<svg id="Layer_gv" data-name="Layer GV" xmlns="http://www.w3.org/2000/svg" xmlns:xlink="http://www.w3.org/1999/xlink" viewBox="0 0 640 500">
  <defs>
    <style>
      .cls-1 {
        fill: #fff;
      }

      .cls-2 {
        stroke-width: 2px;
      }

      .cls-2, .cls-3, .cls-4, .cls-5, .cls-6 {
        fill: none;
      }

      .cls-2, .cls-4, .cls-6 {
        stroke-miterlimit: 10;
      }

      .cls-2, .cls-6 {
        stroke: #ccc;
      }

      .cls-7 {
        fill: #404041;
        font-family: SegoeUI-Semibold, 'Segoe UI';
        font-size: 11.244px;
        font-weight: 700;
      }

      .cls-3 {
        stroke: #e6e6e6;
        stroke-linecap: round;
        stroke-linejoin: round;
      }

      .cls-4 {
        stroke: #f2f2f2;
        stroke-width: 4px;
      }

      .cls-8 {
        fill: #d0d2d3;
      }

      .cls-9 {
        fill: #e6e6e6;
      }

      .cls-10 {
        fill: #27e22b;
      }

      .cls-11 {
        fill: #39b54a;
      }

      .cls-12 {
        clip-path: url(#clippath);
      }

      .cls-13 {
        fill: #999;
      }

      .cls-14 {
        fill: #ccc;
      }

      .cls-15 {
        fill: #f2f2f2;
      }
    </style>
    <symbol id="PE2" viewBox="0 0 30 10">
      <g>
        <rect class="cls-1" x="0" width="30" height="10"/>
        <polygon class="cls-11" points="9 5 1 1 1 9 9 5"/>
        <rect class="cls-11" x="27" y="1" width="2" height="8"/>
        <rect class="cls-14" x="10" y="4" width="2" height="2"/>
        <rect class="cls-14" x="13.5" y="4" width="2" height="2"/>
        <rect class="cls-14" x="17" y="4" width="2" height="2"/>
        <rect class="cls-14" x="20.5" y="4" width="2" height="2"/>
        <rect class="cls-14" x="24" y="4" width="2" height="2"/>
      </g>
    </symbol>
    <clipPath id="clippath">
      <rect class="cls-5" x="245.362" y="407.471" width="96.832" height="39.676" rx="2.005" ry="2.005" transform="translate(587.556 854.618) rotate(180)"/>
    </clipPath>
  </defs>
  <path class="cls-15" d="M44.61,24.682v17.563c0,.626,.508,1.134,1.134,1.134h6.725c.626,0,1.134,.508,1.134,1.134v16.598c0,.626-.508,1.134-1.134,1.134h-1.709c-.626,0-1.134,.508-1.134,1.134v.083c0,.626,.508,1.134,1.134,1.134h1.709c.626,0,1.134,.508,1.134,1.134v11.568c0,.626-.508,1.134-1.134,1.134h-1.709c-.626,0-1.134,.508-1.134,1.134h0c0,.626,.508,1.134,1.134,1.134h1.709c.626,0,1.134,.508,1.134,1.134v10.449c0,.459-.277,.874-.702,1.049l-11.104,4.576c-.425,.175-.702,.589-.702,1.049v3.261c0,.626,.508,1.134,1.134,1.134h10.24c.626,0,1.134,.508,1.134,1.134v4.554c0,.626-.508,1.134-1.134,1.134h-.778c-.626,0-1.134,.508-1.134,1.134v7.907c0,.626,.508,1.134,1.134,1.134h44.142c.626,0,1.134-.508,1.134-1.134v-12.054c0-.626-.508-1.134-1.134-1.134h-.454c-.626,0-1.134,.508-1.134,1.134v1.879c0,.626-.508,1.134-1.134,1.134h-1.312c-.626,0-1.134-.508-1.134-1.134v-4.925c0-.626,.508-1.134,1.134-1.134h4.034c.626,0,1.134-.508,1.134-1.134v-.259c0-.626,.508-1.134,1.134-1.134h1.361c.626,0,1.134-.508,1.134-1.134v-1.944c0-.626-.508-1.134-1.134-1.134h-1.361c-.626,0-1.134-.508-1.134-1.134v-1.102c0-.626-.508-1.134-1.134-1.134h-4.034c-.626,0-1.134-.508-1.134-1.134v-9.901c0-.626,.508-1.134,1.134-1.134h1.733c.626,0,1.134-.508,1.134-1.134h0c0-.626-.508-1.134-1.134-1.134h-1.733c-.626,0-1.134-.508-1.134-1.134v-11.568c0-.626,.508-1.134,1.134-1.134h1.733c.626,0,1.134-.508,1.134-1.134v-.083c0-.626-.508-1.134-1.134-1.134h-1.733c-.626,0-1.134-.508-1.134-1.134v-16.598c0-.626,.508-1.134,1.134-1.134h6.799c.626,0,1.134-.508,1.134-1.134V24.682c0-.626-.508-1.134-1.134-1.134H45.744c-.626,0-1.134,.508-1.134,1.134Z"/>
  <rect class="cls-15" x="246.452" y="394.273" width="15.929" height="14.055" rx="3" ry="3"/>
  <rect class="cls-15" x="389.812" y="394.273" width="17.803" height="14.055" rx="3" ry="3"/>
  <rect class="cls-15" x="453.528" y="394.273" width="17.803" height="14.055" rx="3" ry="3"/>
  <rect class="cls-15" x="517.243" y="394.273" width="17.803" height="14.055" rx="3" ry="3"/>
  <rect class="cls-15" x="547.227" y="394.273" width="17.803" height="14.055" rx="3" ry="3"/>
  <rect class="cls-15" x="569.715" y="394.273" width="8.433" height="6.559" rx="2.475" ry="2.475"/>
  <rect class="cls-4" x="150.878" y="408.328" width="34.669" height="45.913" rx="6" ry="6"/>
  <rect class="cls-15" x="45.935" y="342.738" width="51.535" height="23.425" rx="4" ry="4"/>
  <rect class="cls-10" x="45.935" y="19.524" width="52.472" height="22.488" rx="4" ry="4"/>
  <g>
    <path class="cls-9" d="M121.894,446.682v-30.795h57.779c1.654,0,3,1.346,3,3v24.795c0,1.654-1.346,3-3,3h-57.779Z"/>
    <path class="cls-10" d="M179.673,416.887c1.103,0,2,.897,2,2v24.795c0,1.103-.897,2-2,2h-56.779v-28.795h56.779m0-2h-58.779v32.795h58.779c2.209,0,4-1.791,4-4v-24.795c0-2.209-1.791-4-4-4h0Z"/>
  </g>
  <g>
    <rect class="cls-9" x="186.547" y="415.887" width="11.118" height="30.795" rx="3" ry="3"/>
    <path class="cls-10" d="M194.665,416.887c1.103,0,2,.897,2,2v24.795c0,1.103-.897,2-2,2h-5.118c-1.103,0-2-.897-2-2v-24.795c0-1.103,.897-2,2-2h5.118m0-2h-5.118c-2.209,0-4,1.791-4,4v24.795c0,2.209,1.791,4,4,4h5.118c2.209,0,4-1.791,4-4v-24.795c0-2.209-1.791-4-4-4h0Z"/>
  </g>
  <g>
    <rect class="cls-9" x="200.602" y="415.887" width="11.118" height="30.795" rx="3" ry="3"/>
    <path class="cls-10" d="M208.72,416.887c1.103,0,2,.897,2,2v24.795c0,1.103-.897,2-2,2h-5.118c-1.103,0-2-.897-2-2v-24.795c0-1.103,.897-2,2-2h5.118m0-2h-5.118c-2.209,0-4,1.791-4,4v24.795c0,2.209,1.791,4,4,4h5.118c2.209,0,4-1.791,4-4v-24.795c0-2.209-1.791-4-4-4h0Z"/>
  </g>
  <g>
    <rect class="cls-9" x="214.657" y="415.887" width="11.118" height="30.795" rx="3" ry="3"/>
    <path class="cls-10" d="M222.775,416.887c1.103,0,2,.897,2,2v24.795c0,1.103-.897,2-2,2h-5.118c-1.103,0-2-.897-2-2v-24.795c0-1.103,.897-2,2-2h5.118m0-2h-5.118c-2.209,0-4,1.791-4,4v24.795c0,2.209,1.791,4,4,4h5.118c2.209,0,4-1.791,4-4v-24.795c0-2.209-1.791-4-4-4h0Z"/>
  </g>
  <g>
    <rect class="cls-9" x="228.712" y="415.887" width="11.118" height="30.795" rx="3" ry="3"/>
    <path class="cls-10" d="M236.83,416.887c1.103,0,2,.897,2,2v24.795c0,1.103-.897,2-2,2h-5.118c-1.103,0-2-.897-2-2v-24.795c0-1.103,.897-2,2-2h5.118m0-2h-5.118c-2.209,0-4,1.791-4,4v24.795c0,2.209,1.791,4,4,4h5.118c2.209,0,4-1.791,4-4v-24.795c0-2.209-1.791-4-4-4h0Z"/>
  </g>
  <g>
    <rect class="cls-9" x="57.271" y="44.823" width="29.8" height="44.176" rx="3" ry="3"/>
    <path class="cls-10" d="M84.071,45.823c1.103,0,2,.897,2,2v38.176c0,1.103-.897,2-2,2h-23.8c-1.103,0-2-.897-2-2V47.823c0-1.103,.897-2,2-2h23.8m0-2h-23.8c-2.209,0-4,1.791-4,4v38.176c0,2.209,1.791,4,4,4h23.8c2.209,0,4-1.791,4-4V47.823c0-2.209-1.791-4-4-4h0Z"/>
  </g>
  <g>
    <path class="cls-9" d="M60.99,380.155V95.813c0-1.654,1.346-3,3-3h16.362c1.654,0,3,1.346,3,3V380.155h-22.362Z"/>
    <path class="cls-10" d="M80.352,93.814c1.103,0,2,.897,2,2V379.155h-20.362V95.814c0-1.103,.897-2,2-2h16.362m0-2h-16.362c-2.209,0-4,1.791-4,4V381.155h24.362V95.814c0-2.209-1.791-4-4-4h0Z"/>
  </g>
  <g>
    <rect class="cls-10" x="87.163" y="143.026" width="28.11" height="58.094" rx="4" ry="4"/>
    <text class="cls-7" transform="translate(92.093 176.045) scale(1.074 1)"><tspan x="0" y="0">S0103</tspan></text>
  </g>
  <g>
    <rect class="cls-10" x="87.163" y="207.679" width="28.11" height="58.094" rx="4" ry="4"/>
    <text class="cls-7" transform="translate(92.093 240.684) scale(1.074 1)"><tspan x="0" y="0">S0101</tspan></text>
  </g>
  <g>
    <rect class="cls-10" x="29.069" y="143.026" width="28.11" height="58.094" rx="4" ry="4"/>
    <text class="cls-7" transform="translate(20 176.045) scale(1.074 1)"><tspan x="0" y="0">S0104</tspan></text>
  </g>
  <g>
    <rect class="cls-10" x="29.069" y="207.679" width="28.11" height="58.094" rx="4" ry="4"/>
    <text class="cls-7" transform="translate(20.253 240.684) scale(1.074 1)"><tspan x="0" y="0">S0102</tspan></text>
  </g>
  <g>
    <path class="cls-9" d="M118.02,449.251c-35.726-.532-64.689-29.496-65.222-65.222h36.191c.519,15.774,13.256,28.512,29.03,29.03v36.192Z"/>
    <path class="cls-10" d="M88.037,385.029c.992,15.53,13.454,27.991,28.983,28.983v34.216c-34.381-1.041-62.158-28.818-63.199-63.199h34.216m1.936-2H51.791c0,37.13,30.1,67.229,67.229,67.229v-38.182c-16.042,0-29.047-13.005-29.047-29.047h0Z"/>
  </g>
  <g>
    <path class="cls-8" d="M556.354,424.725h33.28c1.159,0,2.1,.941,2.1,2.1v.711h-37.48v-.711c0-1.159,.941-2.1,2.1-2.1Z" transform="translate(146.864 999.125) rotate(-90)"/>
    <rect class="cls-8" x="560.814" y="424.725" width="37.48" height="2.811" transform="translate(153.423 1005.684) rotate(-90)"/>
    <rect class="cls-8" x="567.372" y="424.725" width="37.48" height="2.811" transform="translate(159.982 1012.243) rotate(-90)"/>
    <rect class="cls-8" x="573.931" y="424.725" width="37.48" height="2.811" transform="translate(166.541 1018.802) rotate(-90)"/>
    <rect class="cls-8" x="580.49" y="424.725" width="37.48" height="2.811" transform="translate(173.1 1025.361) rotate(-90)"/>
    <rect class="cls-8" x="587.049" y="424.725" width="37.48" height="2.811" transform="translate(179.659 1031.92) rotate(-90)"/>
    <rect class="cls-8" x="593.608" y="424.725" width="37.48" height="2.811" transform="translate(186.218 1038.479) rotate(-90)"/>
    <path class="cls-8" d="M599.855,424.725h37.48v.711c0,1.159-.941,2.1-2.1,2.1h-33.28c-1.159,0-2.1-.941-2.1-2.1v-.711h0Z" transform="translate(192.464 1044.725) rotate(-90)"/>
  </g>
  <rect class="cls-15" x="146.193" y="376.47" width="36.543" height="9.37" rx="3" ry="3"/>
  <rect class="cls-15" x="188.358" y="389.588" width="11.244" height="9.37" rx="3" ry="3"/>
  <g>
    <polyline class="cls-3" points="182.451 472.043 178.328 475.791 172.144 470.169"/>
    <rect class="cls-15" x="136.823" y="463.61" width="36.543" height="9.37" rx="3" ry="3"/>
    <rect class="cls-9" x="181.799" y="464.547" width="2.811" height="15.929" rx="1.061" ry="1.061"/>
  </g>
  <g>
    <g>
      <rect class="cls-9" x="243.712" y="405.821" width="100.133" height="42.976" rx="3" ry="3"/>
      <path class="cls-10" d="M340.844,406.821c1.103,0,2,.897,2,2v36.976c0,1.103-.897,2-2,2h-94.132c-1.103,0-2-.897-2-2v-36.976c0-1.103,.897-2,2-2h94.132m0-2h-94.132c-2.209,0-4,1.791-4,4v36.976c0,2.209,1.791,4,4,4h94.132c2.209,0,4-1.791,4-4v-36.976c0-2.209-1.791-4-4-4h0Z"/>
    </g>
    <g class="cls-12">
      <g>
        <line class="cls-6" x1="242.712" y1="409.102" x2="344.844" y2="409.102"/>
        <line class="cls-2" x1="242.712" y1="413.077" x2="344.844" y2="413.077"/>
        <line class="cls-6" x1="242.712" y1="417.052" x2="344.844" y2="417.052"/>
        <line class="cls-2" x1="242.712" y1="421.026" x2="344.844" y2="421.026"/>
        <line class="cls-6" x1="242.712" y1="425.001" x2="344.844" y2="425.001"/>
        <line class="cls-2" x1="242.712" y1="428.976" x2="344.844" y2="428.976"/>
        <line class="cls-6" x1="242.712" y1="432.951" x2="344.844" y2="432.951"/>
        <line class="cls-2" x1="242.712" y1="436.926" x2="344.844" y2="436.926"/>
        <line class="cls-6" x1="242.712" y1="440.901" x2="344.844" y2="440.901"/>
        <line class="cls-2" x1="242.712" y1="444.876" x2="344.844" y2="444.876"/>
      </g>
    </g>
  </g>
  <g>
    <g>
      <rect class="cls-9" x="347.719" y="400.521" width="219.13" height="53.575" rx="3" ry="3"/>
      <path class="cls-10" d="M563.849,401.521c1.103,0,2,.897,2,2v47.576c0,1.103-.897,2-2,2h-213.131c-1.103,0-2-.897-2-2v-47.576c0-1.103,.897-2,2-2h213.131m0-2h-213.131c-2.209,0-4,1.791-4,4v47.576c0,2.209,1.791,4,4,4h213.131c2.209,0,4-1.791,4-4v-47.576c0-2.209-1.791-4-4-4h0Z"/>
    </g>
    <path class="cls-13" d="M349.363,408.437h215.829v-4.268c0-1.105-.895-2-2-2h-211.829c-1.105,0-2,.895-2,2v4.268Z"/>
    <path class="cls-13" d="M349.363,446.174h215.829v4.268c0,1.105-.895,2-2,2h-211.829c-1.105,0-2-.895-2-2v-4.268Z"/>
  </g>
  <use width="30" height="10" transform="translate(54.171 46.784) scale(1.2)" xlink:href="#PE2"/>
  <use width="30" height="10" transform="translate(54.171 375.155) scale(1.2)" xlink:href="#PE2"/>
  <use width="30" height="10" transform="translate(162.213 451.271) rotate(-90) scale(1.2)" xlink:href="#PE2"/>
  <use width="30" height="10" transform="translate(137.448 451.271) rotate(-90) scale(1.2)" xlink:href="#PE2"/>
  <use width="30" height="10" transform="translate(114.895 451.271) rotate(-90) scale(1.2)" xlink:href="#PE2"/>
  <use width="30" height="10" transform="translate(179.547 451.271) rotate(-90) scale(1.2)" xlink:href="#PE2"/>
  <use width="30" height="10" transform="translate(232.737 451.271) rotate(-90) scale(1.2)" xlink:href="#PE2"/>
</svg>