<?xml version="1.0" encoding="utf-8"?>
<!-- Generator: Adobe Illustrator 26.2.1, SVG Export Plug-In . SVG Version: 6.00 Build 0)  -->
<svg version="1.1" id="Layer_1" xmlns="http://www.w3.org/2000/svg" xmlns:xlink="http://www.w3.org/1999/xlink" x="0px" y="0px"
	 viewBox="0 0 840 280" style="enable-background:new 0 0 840 280;" xml:space="preserve">
<style type="text/css">
	.st0{fill:#F1F1F2;}
	.st1{fill:#E6E7E8;}
	.st2{fill:#D0D2D3;}
	.st3{fill:lightgray;}
	.st4{fill:#F7931E;}
	.st5{fill:#E5E141;}
	.st6{fill:#C4C403;}
	.st7{fill:#E61515;}
	.st8{fill:#231F20;}
	.st9{fill:#6D6E70;}
	.st10{fill:#E6E6E6;}
	.st11{fill:#FFFFFF;}
	.st12{clip-path:url(#SVGID_00000072259902678041066130000015401848017532371342_);}
	.st13{fill:none;stroke:#000000;stroke-miterlimit:10;}
	.st14{fill:#EC2024;}
	.st15{clip-path:url(#SVGID_00000067205528042825050920000018424380326606701977_);}
	.st16{fill:none;stroke:#EC2024;stroke-miterlimit:10;}
	.st17{fill:#F5EA14;}
	.st18{fill:#808083;}
	.st19{fill:#221F1F;}
	.st20{fill:#EA1F27;}
	.st21{clip-path:url(#SVGID_00000025402176274863755610000012416242665521039790_);}
	.st22{fill:#F47E20;}
	.st23{fill:#69BC45;}
	.st24{fill:#B8529E;}
	.st25{fill:none;}
	.st26{fill:#FF0000;}
	.st27{fill:#F2F2F2;}
	.st28{fill:#e6e7e8;stroke:#e6e7e8;stroke-width:2;stroke-miterlimit:10;}
	.st29{clip-path:url(#SVGID_00000054226649413693147200000003556142382895954342_);}
	.st30{clip-path:url(#SVGID_00000031193637796589522580000003472214819737522056_);}
	.st31{clip-path:url(#SVGID_00000149376935117538503940000003606177889598171024_);}
	.st32{clip-path:url(#SVGID_00000002365728467975082390000000735925080780740484_);}
	.st33{fill:#808080;}
	.st34{fill:#4D4D4D;}
	.st35{font-family:'SegoeUI-Semibold';}
	.st36{font-size:13.4684px;}
	.st37{clip-path:url(#SVGID_00000049904485196996696080000016369922913852849298_);}
	.st38{clip-path:url(#SVGID_00000033354872244860819560000016333970272242173617_);}
	.st39{clip-path:url(#SVGID_00000168818696155004459170000002895667054314781625_);}
	.st40{clip-path:url(#SVGID_00000119807284659158090560000009983151777895837374_);}
	@keyframes partial-full {
		from {fill: #58595b;}
		to {fill: #4d80ff;}
	}
	@keyframes pe-blocked {
		from {fill: #58595b;}
		to {fill: #FFBF00;}
	}
	.cls-blink{
		fill: #58595b;
		animation-name: partial-full;
		animation-duration: 0.2s;
		animation-iteration-count: infinite;
		animation-direction: alternate;
	}
	.cls-blink2 {
		fill: #58595b;
		animation-name: pe-blocked;
		animation-duration: 0.2s;
		animation-iteration-count: infinite;
		animation-direction: alternate;
	}
	.mod-sorter{
		cursor:pointer
	}
</style>
<g>
	<g>
		<path class="st27" d="M332.539,171.686h-22.738v-25.971h16.738c3.314,0,6,2.686,6,6V171.686z"/>
		<path class="st27" d="M332.539,177.757h-22.738v25.971h16.738c3.314,0,6-2.686,6-6V177.757z"/>
		<path class="st10" d="M324.144,181.87h-5.949c-0.581,0-1.052-0.471-1.052-1.052v-12.193c0-0.581,0.471-1.052,1.052-1.052h5.949
			c0.581,0,1.052,0.471,1.052,1.052v12.193C325.196,181.399,324.725,181.87,324.144,181.87z"/>
	</g>
	<g>
		<path id="conv-1" class="st3" d="M326.539,147.715c2.206,0,4,1.794,4,4v46.014c0,2.206-1.794,4-4,4h-14.739v-54.014H326.539 M326.539,145.715
			h-16.739v58.014h16.739c3.313,0,6-2.686,6-6v-46.014C332.539,148.401,329.853,145.715,326.539,145.715L326.539,145.715z"/>
	</g>
	<g>
		<path class="st0" d="M609.449,158.798h167.57v-0.49c0-2.21-1.792-4.002-4.002-4.002H613.451c-2.21,0-4.002,1.792-4.002,4.002
			V158.798z"/>
		<path class="st0" d="M609.449,195.534h167.57v0.49c0,2.21-1.792,4.002-4.002,4.002H613.451c-2.21,0-4.002-1.792-4.002-4.002
			V195.534z"/>
	</g>
	<g>
		<g>
			<g>
				<path class="st27" d="M598.777,196.521c-2.757,0-5-2.243-5-5v-29.318c0-2.757,2.243-5,5-5h188.914c2.757,0,5,2.243,5,5v29.318
					c0,2.757-2.243,5-5,5H598.777z"/>
				<path id="conv-3" class="st3" d="M787.691,158.203c2.206,0,4,1.794,4,4v29.318c0,2.206-1.794,4-4,4H598.777c-2.206,0-4-1.794-4-4v-29.318
					c0-2.206,1.794-4,4-4H787.691 M787.691,156.203H598.777c-3.314,0-6,2.686-6,6v29.318c0,3.314,2.686,6,6,6h188.914
					c3.314,0,6-2.686,6-6v-29.318C793.691,158.889,791.005,156.203,787.691,156.203L787.691,156.203z"/>
			</g>
			<g>
				<g class="mod-sorter" data-device-type="2" data-sorter-number="1" data-toggle="tooltip" data-html="true" title="Lift 1">
					<g>
						<path class="st27" d="M655.262,189.846h-22.509c-1.16,0-2.1-0.94-2.1-2.1v-21.769c0-1.16,0.94-2.1,2.1-2.1h22.509
							c1.16,0,2.1,0.94,2.1,2.1v21.769C657.362,188.906,656.421,189.846,655.262,189.846z"/>
					</g>
					<g>
						<path class="st4" d="M630.652,166.234h26.709v-0.257c0-1.16-0.94-2.1-2.1-2.1h-22.509c-1.16,0-2.1,0.94-2.1,2.1V166.234z"/>
						
							<rect x="630.652" y="168.6" transform="matrix(-1 -1.224647e-16 1.224647e-16 -1 1288.0139 339.5565)" class="st4" width="26.709" height="2.357"/>
						
							<rect x="630.652" y="173.322" transform="matrix(-1 -1.224647e-16 1.224647e-16 -1 1288.0139 349.0012)" class="st4" width="26.709" height="2.357"/>
						
							<rect x="630.652" y="178.045" transform="matrix(-1 -1.224647e-16 1.224647e-16 -1 1288.0139 358.4459)" class="st4" width="26.709" height="2.357"/>
						
							<rect x="630.652" y="182.767" transform="matrix(-1 -1.224647e-16 1.224647e-16 -1 1288.0139 367.8905)" class="st4" width="26.709" height="2.357"/>
						<path class="st4" d="M632.752,189.846h22.509c1.16,0,2.1-0.94,2.1-2.1v-0.257h-26.709v0.257
							C630.652,188.906,631.593,189.846,632.752,189.846z"/>
					</g>
				</g>
				<g class="mod-sorter" data-device-type="2" data-sorter-number="2" data-toggle="tooltip" data-html="true" title="Lift 2">
					<g>
						<path class="st27" d="M704.489,189.846H681.98c-1.16,0-2.1-0.94-2.1-2.1v-21.769c0-1.16,0.94-2.1,2.1-2.1h22.509
							c1.16,0,2.1,0.94,2.1,2.1v21.769C706.589,188.906,705.649,189.846,704.489,189.846z"/>
					</g>
					<g>
						<path class="st4" d="M679.88,166.234h26.709v-0.257c0-1.16-0.94-2.1-2.1-2.1H681.98c-1.16,0-2.1,0.94-2.1,2.1V166.234z"/>
						
							<rect x="679.88" y="168.6" transform="matrix(-1 -1.224647e-16 1.224647e-16 -1 1386.4686 339.5565)" class="st4" width="26.709" height="2.357"/>
						
							<rect x="679.88" y="173.322" transform="matrix(-1 -1.224647e-16 1.224647e-16 -1 1386.4686 349.0012)" class="st4" width="26.709" height="2.357"/>
						
							<rect x="679.88" y="178.045" transform="matrix(-1 -1.224647e-16 1.224647e-16 -1 1386.4686 358.4459)" class="st4" width="26.709" height="2.357"/>
						
							<rect x="679.88" y="182.767" transform="matrix(-1 -1.224647e-16 1.224647e-16 -1 1386.4686 367.8905)" class="st4" width="26.709" height="2.357"/>
						<path class="st4" d="M681.98,189.846h22.509c1.16,0,2.1-0.94,2.1-2.1v-0.257H679.88v0.257
							C679.88,188.906,680.82,189.846,681.98,189.846z"/>
					</g>
				</g>
				<g class="mod-sorter" data-device-type="2" data-sorter-number="3" data-toggle="tooltip" data-html="true" title="Lift 3">
					<g>
						<path class="st27" d="M753.716,189.846h-22.509c-1.16,0-2.1-0.94-2.1-2.1v-21.769c0-1.16,0.94-2.1,2.1-2.1h22.509
							c1.16,0,2.1,0.94,2.1,2.1v21.769C755.816,188.906,754.876,189.846,753.716,189.846z"/>
					</g>
					<g>
						<path class="st4" d="M729.107,166.234h26.709v-0.257c0-1.16-0.94-2.1-2.1-2.1h-22.509c-1.16,0-2.1,0.94-2.1,2.1V166.234z"/>
						
							<rect x="729.107" y="168.6" transform="matrix(-1 -1.224647e-16 1.224647e-16 -1 1484.9233 339.5565)" class="st4" width="26.709" height="2.357"/>
						
							<rect x="729.107" y="173.322" transform="matrix(-1 -1.224647e-16 1.224647e-16 -1 1484.9233 349.0012)" class="st4" width="26.709" height="2.357"/>
						
							<rect x="729.107" y="178.045" transform="matrix(-1 -1.224647e-16 1.224647e-16 -1 1484.9233 358.4459)" class="st4" width="26.709" height="2.357"/>
						
							<rect x="729.107" y="182.767" transform="matrix(-1 -1.224647e-16 1.224647e-16 -1 1484.9233 367.8905)" class="st4" width="26.709" height="2.357"/>
						<path class="st4" d="M731.207,189.846h22.509c1.16,0,2.1-0.94,2.1-2.1v-0.257h-26.709v0.257
							C729.107,188.906,730.047,189.846,731.207,189.846z"/>
					</g>
				</g>
				<g>
					<g>
						<path class="st27" d="M674.657,189.846h-12.072c-1.16,0-2.1-0.94-2.1-2.1v-21.769c0-1.16,0.94-2.1,2.1-2.1h12.072
							c1.16,0,2.1,0.94,2.1,2.1v21.769C676.757,188.906,675.816,189.846,674.657,189.846z"/>
					</g>
					<g>
						<path class="st2" d="M660.485,166.234h16.272v-0.257c0-1.16-0.94-2.1-2.1-2.1h-12.072c-1.16,0-2.1,0.94-2.1,2.1V166.234z"/>
						
							<rect x="660.485" y="168.6" transform="matrix(-1 -1.224647e-16 1.224647e-16 -1 1337.2413 339.5565)" class="st2" width="16.272" height="2.357"/>
						
							<rect x="660.485" y="173.322" transform="matrix(-1 -1.224647e-16 1.224647e-16 -1 1337.2413 349.0012)" class="st2" width="16.272" height="2.357"/>
						
							<rect x="660.485" y="178.045" transform="matrix(-1 -1.224647e-16 1.224647e-16 -1 1337.2413 358.4459)" class="st2" width="16.272" height="2.357"/>
						
							<rect x="660.485" y="182.767" transform="matrix(-1 8.828733e-09 -8.828733e-09 -1 1337.2413 367.8905)" class="st2" width="16.272" height="2.357"/>
						<path class="st2" d="M662.585,189.846h12.072c1.16,0,2.1-0.94,2.1-2.1v-0.257h-16.272v0.257
							C660.485,188.906,661.425,189.846,662.585,189.846z"/>
					</g>
				</g>
				<g>
					<g>
						<path class="st27" d="M723.884,189.846h-12.072c-1.16,0-2.1-0.94-2.1-2.1v-21.769c0-1.16,0.94-2.1,2.1-2.1h12.072
							c1.16,0,2.1,0.94,2.1,2.1v21.769C725.984,188.906,725.044,189.846,723.884,189.846z"/>
					</g>
					<g>
						<path class="st2" d="M709.712,166.234h16.272v-0.257c0-1.16-0.94-2.1-2.1-2.1h-12.072c-1.16,0-2.1,0.94-2.1,2.1V166.234z"/>
						
							<rect x="709.712" y="168.6" transform="matrix(-1 -1.224647e-16 1.224647e-16 -1 1435.696 339.5565)" class="st2" width="16.272" height="2.357"/>
						
							<rect x="709.712" y="173.322" transform="matrix(-1 -1.224647e-16 1.224647e-16 -1 1435.696 349.0012)" class="st2" width="16.272" height="2.357"/>
						
							<rect x="709.712" y="178.045" transform="matrix(-1 -1.224647e-16 1.224647e-16 -1 1435.696 358.4459)" class="st2" width="16.272" height="2.357"/>
						
							<rect x="709.712" y="182.767" transform="matrix(-1 8.828733e-09 -8.828733e-09 -1 1435.696 367.8905)" class="st2" width="16.272" height="2.357"/>
						<path class="st2" d="M711.812,189.846h12.072c1.16,0,2.1-0.94,2.1-2.1v-0.257h-16.272v0.257
							C709.712,188.906,710.652,189.846,711.812,189.846z"/>
					</g>
				</g>
				<g>
					<g>
						<path class="st27" d="M625.195,189.846h-21.434c-1.16,0-2.1-0.94-2.1-2.1v-21.769c0-1.16,0.94-2.1,2.1-2.1h21.434
							c1.16,0,2.1,0.94,2.1,2.1v21.769C627.295,188.906,626.355,189.846,625.195,189.846z"/>
					</g>
					<g>
						<path class="st2" d="M627.295,166.234h-25.633v-0.257c0-1.16,0.94-2.1,2.1-2.1h21.434c1.16,0,2.1,0.94,2.1,2.1V166.234z"/>
						<rect x="601.662" y="168.6" class="st2" width="25.633" height="2.357"/>
						<rect x="601.662" y="173.322" class="st2" width="25.633" height="2.357"/>
						<rect x="601.662" y="178.045" class="st2" width="25.633" height="2.357"/>
						<rect x="601.662" y="182.767" class="st2" width="25.633" height="2.357"/>
						<path class="st2" d="M625.195,189.846h-21.434c-1.16,0-2.1-0.94-2.1-2.1v-0.257h25.633v0.257
							C627.295,188.906,626.355,189.846,625.195,189.846z"/>
					</g>
				</g>
				<g>
					<g>
						<path class="st27" d="M782.707,189.846h-21.433c-1.16,0-2.1-0.94-2.1-2.1v-21.769c0-1.16,0.94-2.1,2.1-2.1h21.433
							c1.16,0,2.1,0.94,2.1,2.1v21.769C784.807,188.906,783.867,189.846,782.707,189.846z"/>
					</g>
					<g>
						<path class="st2" d="M784.807,166.234h-25.633v-0.257c0-1.16,0.94-2.1,2.1-2.1h21.434c1.16,0,2.1,0.94,2.1,2.1V166.234z"/>
						<rect x="759.174" y="168.6" class="st2" width="25.633" height="2.357"/>
						<rect x="759.174" y="173.322" class="st2" width="25.633" height="2.357"/>
						<rect x="759.174" y="178.045" class="st2" width="25.633" height="2.357"/>
						<rect x="759.174" y="182.767" class="st2" width="25.633" height="2.357"/>
						<path class="st2" d="M782.707,189.846h-21.434c-1.16,0-2.1-0.94-2.1-2.1v-0.257h25.633v0.257
							C784.807,188.906,783.867,189.846,782.707,189.846z"/>
					</g>
				</g>
			</g>
		</g>
		<g>
			<g>
				<path class="st1" d="M648.374,220.118h-21.808c-1.458,0-2.64-1.182-2.64-2.64v-17.294h34.635L648.374,220.118z"/>
				<polygon class="st2" points="642.39,220.118 658.561,220.118 658.561,200.184 623.926,200.184 				"/>
				<rect id="bin-1" class="st28" x="618" y="218" width="42" height="55" rx="6" ry="6"></rect>
				<text class="st34 st35 st36" transform="translate(630 250)">01</text>

			</g>
			<g>
				<path class="st1" d="M697.284,220.118h-21.808c-1.458,0-2.64-1.182-2.64-2.64v-17.294h34.635L697.284,220.118z"/>
				<polygon class="st2" points="691.3,220.118 707.471,220.118 707.471,200.184 672.837,200.184 				"/>
				<rect id="bin-3" class="st28" x="667" y="218" width="42" height="55" rx="6" ry="6"></rect>
				<text class="st34 st35 st36" transform="translate(679 250)">03</text>


			</g>
			<g>
				<path class="st1" d="M746.195,220.118h-21.808c-1.458,0-2.64-1.182-2.64-2.64v-17.294h34.635L746.195,220.118z"/>
				<polygon class="st2" points="740.21,220.118 756.381,220.118 756.381,200.184 721.747,200.184 				"/>
				<rect id="bin-5" class="st28" x="716" y="218" width="42" height="55" rx="6" ry="6"></rect>
				<text class="st34 st35 st36" transform="translate(728 250)">05</text>
			</g>
			<g>
				<path class="st1" d="M648.374,134.373h-21.808c-1.458,0-2.64,1.182-2.64,2.64v17.294h34.635L648.374,134.373z"/>
				<polygon class="st2" points="642.39,134.373 658.561,134.373 658.561,154.307 623.926,154.307 				"/>
				<rect id="bin-2" class="st28" x="618" y="83" width="42" height="55" rx="6" ry="6"></rect>
				<text class="st34 st35 st36" transform="translate(630 115)">02</text>
			</g>
			<g>
				<path class="st1" d="M697.284,134.373h-21.808c-1.458,0-2.64,1.182-2.64,2.64v17.294h34.635L697.284,134.373z"/>
				<polygon class="st2" points="691.3,134.373 707.471,134.373 707.471,154.307 672.837,154.307 				"/>
				<rect id="bin-4" class="st28" x="667" y="83" width="42" height="55" rx="6" ry="6"></rect>
				<text class="st34 st35 st36" transform="translate(679 115)">04</text>
			</g>
			<g>
				<path class="st1" d="M746.195,134.373h-21.808c-1.458,0-2.64,1.182-2.64,2.64v17.294h34.635L746.195,134.373z"/>
				<polygon class="st2" points="740.21,134.373 756.381,134.373 756.381,154.307 721.747,154.307"/>
				<rect id="bin-6" class="st28" x="716" y="83" width="42" height="55" rx="6" ry="6"></rect>
				<text class="st34 st35 st36" transform="translate(728 115)">06</text>

			</g>
			<g>
				<rect id="bin-7" class="st28" x="799" y="152" width="34" height="50" rx="5" ry="5"></rect>
				<text class="st34 st35 st36" transform="translate(808 184)">07</text>
			</g>
		</g>
	</g>
	<g>
		<path class="st0" d="M344.539,202.729c-2.757,0-5-2.243-5-5v-41.843c0-2.757,2.243-5,5-5h237.749c2.757,0,5,2.243,5,5v41.843
			c0,2.757-2.243,5-5,5H344.539z"/>
		<path id="conv-2" class="st3" d="M582.288,151.885c2.206,0,4,1.794,4,4v41.843c0,2.206-1.794,4-4,4H344.539c-2.206,0-4-1.794-4-4v-41.843
			c0-2.206,1.794-4,4-4H582.288 M582.288,149.885H344.539c-3.314,0-6,2.686-6,6v41.843c0,3.314,2.686,6,6,6h237.749
			c3.314,0,6-2.686,6-6v-41.843C588.288,152.572,585.602,149.885,582.288,149.885L582.288,149.885z"/>
	</g>

	<path class="st1" d="M437.761,212.101h-49.816c-3.314,0-6-2.686-6-6v-58.709c0-3.314,2.686-6,6-6h49.816c3.314,0,6,2.686,6,6
		v58.709C443.761,209.414,441.075,212.101,437.761,212.101z"/>
	<g>
		<path class="st0" d="M355.084,146.229h0.94v3.739h6.465v-3.739h0.94c0.422,0,0.764-0.342,0.764-0.764
			c0-0.422-0.342-0.764-0.764-0.764h-0.94h-6.465h-0.94c-0.422,0-0.764,0.342-0.764,0.764
			C354.319,145.887,354.662,146.229,355.084,146.229z"/>
		<path class="st5" d="M356.405,141.272h5.701v2.789c0,1.403-1.137,2.54-2.54,2.54h-0.622c-1.403,0-2.54-1.137-2.54-2.54V141.272z"
			/>
		<path class="st6" d="M357.927,140.838h2.658c0.446,0,0.808,0.362,0.808,0.808v0.284c0,0.835-0.677,1.511-1.511,1.511h-1.251
			c-0.835,0-1.511-0.677-1.511-1.511v-0.284C357.119,141.2,357.481,140.838,357.927,140.838z"/>
		<circle class="st7" cx="359.256" cy="141.272" r="1.379"/>
	</g>
	<g>
		<path class="st0" d="M572.323,146.229h0.94v3.739h6.465v-3.739h0.94c0.422,0,0.764-0.342,0.764-0.764
			c0-0.422-0.342-0.764-0.764-0.764h-0.94h-6.465h-0.94c-0.422,0-0.764,0.342-0.764,0.764
			C571.559,145.887,571.901,146.229,572.323,146.229z"/>
		<path class="st5" d="M573.645,141.272h5.701v2.789c0,1.403-1.137,2.54-2.54,2.54h-0.622c-1.403,0-2.54-1.137-2.54-2.54V141.272z"
			/>
		<path class="st6" d="M575.167,140.838h2.658c0.446,0,0.808,0.362,0.808,0.808v0.284c0,0.835-0.677,1.511-1.511,1.511h-1.251
			c-0.834,0-1.511-0.677-1.511-1.511v-0.284C574.359,141.2,574.72,140.838,575.167,140.838z"/>
		<circle class="st7" cx="576.496" cy="141.272" r="1.379"/>
	</g>
	<g>
		<path class="st0" d="M572.323,207.385h0.94v-3.739h6.465v3.739h0.94c0.422,0,0.764,0.342,0.764,0.764
			c0,0.422-0.342,0.764-0.764,0.764h-0.94h-6.465h-0.94c-0.422,0-0.764-0.342-0.764-0.764
			C571.559,207.727,571.901,207.385,572.323,207.385z"/>
		<path class="st5" d="M573.645,212.342h5.701v-2.789c0-1.403-1.137-2.54-2.54-2.54h-0.622c-1.403,0-2.54,1.137-2.54,2.54V212.342z"
			/>
		<path class="st6" d="M575.167,212.776h2.658c0.446,0,0.808-0.362,0.808-0.808v-0.284c0-0.835-0.677-1.511-1.511-1.511h-1.251
			c-0.834,0-1.511,0.677-1.511,1.511v0.284C574.359,212.414,574.72,212.776,575.167,212.776z"/>
		<circle class="st7" cx="576.496" cy="212.342" r="1.379"/>
	</g>
	<g>
		<path class="st0" d="M305.801,171.686h-37.796v-19.971c0-3.314,2.686-6,6-6h31.796V171.686z"/>
		<path class="st0" d="M268.004,177.757h37.796v25.971h-31.796c-3.314,0-6-2.686-6-6V177.757z"/>
		<path class="st1" d="M289.877,181.87h-5.949c-0.581,0-1.052-0.471-1.052-1.052v-12.193c0-0.581,0.471-1.052,1.052-1.052h5.949
			c0.581,0,1.052,0.471,1.052,1.052v12.193C290.928,181.399,290.457,181.87,289.877,181.87z"/>
	</g>
	<g>
		<path class="st0" d="M263.498,171.686h-76.782v-19.971c0-3.314,2.686-6,6-6h64.782c3.314,0,6,2.686,6,6V171.686z"/>
		<path class="st0" d="M257.498,203.728h-64.782c-3.314,0-6-2.686-6-6v-19.971h76.782v19.971
			C263.498,201.042,260.811,203.728,257.498,203.728z"/>
		<path class="st1" d="M204.351,180.461h-5.967c-0.581,0-1.052-0.471-1.052-1.052v-3.304c0-0.581,0.471-1.052,1.052-1.052h5.967
			c0.581,0,1.052,0.471,1.052,1.052v3.304C205.403,179.99,204.932,180.461,204.351,180.461z"/>
		<path class="st1" d="M241.658,180.461h-5.967c-0.581,0-1.052-0.471-1.052-1.052v-3.304c0-0.581,0.471-1.052,1.052-1.052h5.967
			c0.581,0,1.052,0.471,1.052,1.052v3.304C242.709,179.99,242.238,180.461,241.658,180.461z"/>
		<path class="st1" d="M251.265,174.39h-5.967c-0.581,0-1.052-0.471-1.052-1.052v-3.304c0-0.581,0.471-1.052,1.052-1.052h5.967
			c0.581,0,1.052,0.471,1.052,1.052v3.304C252.317,173.919,251.846,174.39,251.265,174.39z"/>
		<path class="st1" d="M213.849,174.39h-5.967c-0.581,0-1.052-0.471-1.052-1.052v-3.304c0-0.581,0.471-1.052,1.052-1.052h5.967
			c0.581,0,1.052,0.471,1.052,1.052v3.304C214.9,173.919,214.429,174.39,213.849,174.39z"/>
	</g>
	<path class="st0" d="M82.567,202.109h93.659c3.314,0,6-2.686,6-6v-7.215c0-3.314-2.686-6-6-6H82.567V202.109z"/>
	<path class="st1" d="M73.05,205.513h6.627c1.657,0,3-1.343,3-3v-20.022c0-1.657-1.343-3-3-3H73.05c-1.657,0-3,1.343-3,3v20.022
		C70.05,204.17,71.393,205.513,73.05,205.513z"/>
	<ellipse class="st2" cx="76.363" cy="192.502" rx="4.117" ry="5.49"/>
	<g id="tooltip-switch-14" data-toggle="tooltip" data-html="true" title="Reject Sensor<br>REJECT_PE">
		<g>
			<path id="switch-14" class="st11" d="M797.774,158.548c-2.667,0-4.837-2.17-4.837-4.837s2.17-4.837,4.837-4.837c2.668,0,4.838,2.17,4.838,4.837
				S800.442,158.548,797.774,158.548z"/>
			<path d="M797.775,149.124c2.529,0,4.587,2.058,4.587,4.587s-2.058,4.587-4.587,4.587c-2.53,0-4.587-2.058-4.587-4.587
				S795.245,149.124,797.775,149.124 M797.775,148.624c-2.81,0-5.087,2.278-5.087,5.087c0,2.81,2.278,5.087,5.087,5.087
				s5.087-2.278,5.087-5.087C802.862,150.901,800.584,148.624,797.775,148.624L797.775,148.624z"/>
		</g>
		<g>
			<defs>
				<circle id="SVGID_00000074415711915210986070000007930490952370593727_" cx="797.775" cy="153.711" r="5.087"/>
			</defs>
			<clipPath id="SVGID_00000163043518341374510570000004482290606065989800_">
				<use xlink:href="#SVGID_00000074415711915210986070000007930490952370593727_"  style="overflow:visible;"/>
			</clipPath>
			<g style="clip-path:url(#SVGID_00000163043518341374510570000004482290606065989800_);">
				<line class="st13" x1="786.376" y1="161.807" x2="804.468" y2="143.715"/>
				<line class="st13" x1="788.029" y1="163.46" x2="806.121" y2="145.368"/>
				<line class="st13" x1="789.682" y1="165.113" x2="807.774" y2="147.021"/>
			</g>
		</g>
	</g>
	<g id="tooltip-switch-13" data-toggle="tooltip" data-html="true" title="EntrySorter Pe<br>SORTER_ENTRY_PE">
		<g>
			<path id="switch-13" class="st11" d="M587.104,154.805c-2.667,0-4.837-2.17-4.837-4.837c0-2.667,2.17-4.837,4.837-4.837
				c2.668,0,4.838,2.17,4.838,4.837C591.942,152.635,589.772,154.805,587.104,154.805z"/>
			<path d="M587.105,145.38c2.53,0,4.587,2.058,4.587,4.587s-2.058,4.587-4.587,4.587c-2.529,0-4.587-2.058-4.587-4.587
				S584.575,145.38,587.105,145.38 M587.105,144.88c-2.81,0-5.087,2.278-5.087,5.087c0,2.81,2.278,5.087,5.087,5.087
				s5.087-2.278,5.087-5.087C592.192,147.158,589.914,144.88,587.105,144.88L587.105,144.88z"/>
		</g>
		<g>
			<defs>
				<circle id="SVGID_00000094603335820125004440000002688810494579132552_" cx="587.105" cy="149.968" r="5.087"/>
			</defs>
			<clipPath id="SVGID_00000042717027722853116140000005680968257927748770_">
				<use xlink:href="#SVGID_00000094603335820125004440000002688810494579132552_"  style="overflow:visible;"/>
			</clipPath>
			<g style="clip-path:url(#SVGID_00000042717027722853116140000005680968257927748770_);">
				<line class="st13" x1="575.706" y1="158.064" x2="593.799" y2="139.972"/>
				<line class="st13" x1="577.359" y1="159.717" x2="595.451" y2="141.625"/>
				<line class="st13" x1="579.012" y1="161.37" x2="597.104" y2="143.278"/>
			</g>
		</g>
	</g>
	<g id="tooltip-switch-15" data-toggle="tooltip" data-html="true" title="Transport Exit Pe<br>TRANSPORT_EXIT_PE">
		<g>
			<path id="switch-15" class="st11" d="M563.433,154.805c-2.667,0-4.837-2.17-4.837-4.837c0-2.667,2.17-4.837,4.837-4.837
				c2.668,0,4.838,2.17,4.838,4.837C568.271,152.635,566.101,154.805,563.433,154.805z"/>
			<path d="M563.433,145.38c2.53,0,4.587,2.058,4.587,4.587s-2.058,4.587-4.587,4.587c-2.529,0-4.587-2.058-4.587-4.587
				S560.904,145.38,563.433,145.38 M563.433,144.88c-2.81,0-5.087,2.278-5.087,5.087c0,2.81,2.278,5.087,5.087,5.087
				c2.81,0,5.087-2.278,5.087-5.087C568.52,147.158,566.243,144.88,563.433,144.88L563.433,144.88z"/>
		</g>
		<g>
			<defs>
				<circle id="SVGID_00000030446749838166633410000017953654507020310690_" cx="563.433" cy="149.968" r="5.087"/>
			</defs>
			<clipPath id="SVGID_00000139253632566817679540000011154691746211674022_">
				<use xlink:href="#SVGID_00000030446749838166633410000017953654507020310690_"  style="overflow:visible;"/>
			</clipPath>
			<g style="clip-path:url(#SVGID_00000139253632566817679540000011154691746211674022_);">
				<line class="st13" x1="552.035" y1="158.064" x2="570.127" y2="139.972"/>
				<line class="st13" x1="553.688" y1="159.717" x2="571.78" y2="141.625"/>
				<line class="st13" x1="555.341" y1="161.37" x2="573.433" y2="143.278"/>
			</g>
		</g>
	</g>
	<g id="tooltip-switch-16" data-toggle="tooltip" data-html="true" title="Trigger Pe<br>TRACKING_TRIGGER_PHOTO_EYE">
		<g>
			<path id="switch-16" class="st11" d="M364.192,154.805c-2.667,0-4.837-2.17-4.837-4.837c0-2.667,2.17-4.837,4.837-4.837s4.837,2.17,4.837,4.837
				C369.029,152.635,366.859,154.805,364.192,154.805z"/>
			<path d="M364.192,145.38c2.529,0,4.587,2.058,4.587,4.587s-2.058,4.587-4.587,4.587s-4.587-2.058-4.587-4.587
				S361.663,145.38,364.192,145.38 M364.192,144.88c-2.81,0-5.087,2.278-5.087,5.087c0,2.81,2.278,5.087,5.087,5.087
				s5.087-2.278,5.087-5.087C369.28,147.158,367.002,144.88,364.192,144.88L364.192,144.88z"/>
		</g>
		<g>
			<defs>
				<circle id="SVGID_00000054248336957386690030000007012273678007023276_" cx="364.192" cy="149.968" r="5.087"/>
			</defs>
			<clipPath id="SVGID_00000175306323879882509020000002942593484081425852_">
				<use xlink:href="#SVGID_00000054248336957386690030000007012273678007023276_"  style="overflow:visible;"/>
			</clipPath>
			<g style="clip-path:url(#SVGID_00000175306323879882509020000002942593484081425852_);">
				<line class="st13" x1="352.794" y1="158.064" x2="370.886" y2="139.972"/>
				<line class="st13" x1="354.447" y1="159.717" x2="372.539" y2="141.625"/>
				<line class="st13" x1="356.1" y1="161.37" x2="374.192" y2="143.278"/>
			</g>
		</g>
	</g>
	<g>
		<path class="st0" d="M137.429,141.225V65.5c0-4.339,3.518-7.857,7.857-7.857h0c3.099,0,5.612-2.513,5.612-5.612V16.398
			c0-3.719-3.015-6.734-6.734-6.734H88.532c-3.719,0-6.734,3.015-6.734,6.734v153.674c0,3.719,3.015,6.734,6.734,6.734h24.595h37.77
			h24.595c3.719,0,6.734-3.015,6.734-6.734v-17.624c0-3.719-3.015-6.734-6.734-6.734h-33.574
			C139.439,145.715,137.429,143.705,137.429,141.225z"/>
		<g>
			<path class="st10" d="M122.194,168.735H94.43c-2.251,0-4.076-1.825-4.076-4.076V100.38c0-2.251,1.825-4.076,4.076-4.076h27.764
				c2.251,0,4.076,1.825,4.076,4.076v64.279C126.27,166.91,124.445,168.735,122.194,168.735z"/>
			<path class="st10" d="M122.194,86.483H94.43c-2.251,0-4.076-1.825-4.076-4.076V21.811c0-2.251,1.825-4.076,4.076-4.076h27.764
				c2.251,0,4.076,1.825,4.076,4.076v60.596C126.27,84.658,124.445,86.483,122.194,86.483z"/>
		</g>
		<path class="st0" d="M146.462,142.011h-1.101c-2.485,0-4.5-2.015-4.5-4.5V65.7c0-2.485,2.015-4.5,4.5-4.5h1.101
			c2.485,0,4.5,2.015,4.5,4.5v71.811C150.962,139.996,148.947,142.011,146.462,142.011z"/>
	</g>
	<g>
		<path class="st1" d="M59.068,216.76l-0.265-0.265c-0.599-0.599-0.599-1.569,0-2.167l8.443-8.443c0.599-0.599,1.569-0.599,2.167,0
			l0.265,0.265c0.599,0.599,0.599,1.569,0,2.167l-8.443,8.443C60.637,217.358,59.666,217.358,59.068,216.76z"/>
		<circle class="st1" cx="56.142" cy="218.084" r="5.475"/>
		<path class="st8" d="M51.969,193.665c-0.832-0.166-1.642,0.375-1.807,1.208l-2.169,10.929l-7.768-4.089
			c-1.023-0.539-2.275,0.064-2.493,1.2l-4.337,22.658c-0.213,1.116,0.693,2.129,1.825,2.04l8.561-0.672
			c0.006-0.001,0.011-0.004,0.017-0.004l-2.187,11.018c-0.165,0.832,0.376,1.641,1.209,1.807c0.833,0.165,1.642-0.376,1.807-1.208
			l6.579-21.839l1.971-21.24C53.343,194.639,52.802,193.83,51.969,193.665z"/>
		<g>
			<path class="st9" d="M24.079,242.568l-13.891-2.491c-1.755-0.315-2.922-1.993-2.608-3.747l9.094-50.707
				c0.315-1.755,1.993-2.922,3.747-2.608l13.891,2.491c1.755,0.315,2.922,1.993,2.608,3.747l-9.094,50.707
				C27.512,241.715,25.834,242.883,24.079,242.568z"/>
			<g>
				<path class="st33" d="M14.158,220.808l3.363-18.752c0.095-0.532,0.604-0.886,1.136-0.79l1.244,0.223
					c0.532,0.095,0.886,0.604,0.79,1.136l-3.363,18.752c-0.095,0.532-0.604,0.886-1.136,0.79l-1.244-0.223
					C14.416,221.849,14.062,221.34,14.158,220.808z"/>
				<path class="st33" d="M18.083,198.924l0.393-2.19c0.095-0.532,0.604-0.886,1.136-0.79l1.244,0.223
					c0.532,0.095,0.886,0.604,0.79,1.136l-0.393,2.19c-0.095,0.532-0.604,0.886-1.136,0.79l-1.244-0.223
					C18.341,199.964,17.987,199.455,18.083,198.924z"/>
				<path class="st33" d="M24.43,191.519l0.701-3.91c0.095-0.532,0.604-0.886,1.136-0.79l1.244,0.223
					c0.532,0.095,0.886,0.604,0.79,1.136l-0.701,3.91c-0.095,0.532-0.604,0.886-1.136,0.79l-1.244-0.223
					C24.689,192.559,24.335,192.051,24.43,191.519z"/>
				<path class="st33" d="M16.201,237.405l0.701-3.91c0.095-0.532,0.604-0.886,1.136-0.79l1.244,0.223
					c0.532,0.095,0.886,0.604,0.79,1.136l-0.701,3.91c-0.095,0.532-0.604,0.886-1.136,0.79l-1.244-0.223
					C16.459,238.445,16.105,237.937,16.201,237.405z"/>
				<path class="st33" d="M19.052,193.52l1.217-6.783c0.095-0.532,0.604-0.886,1.136-0.79l1.244,0.223
					c0.532,0.095,0.886,0.604,0.79,1.136l-1.217,6.783c-0.095,0.532-0.604,0.886-1.136,0.79l-1.244-0.223
					C19.31,194.56,18.957,194.052,19.052,193.52z"/>
				<path class="st33" d="M13.082,226.806l0.393-2.19c0.095-0.532,0.604-0.886,1.136-0.79l1.244,0.223
					c0.532,0.095,0.886,0.604,0.79,1.136l-0.393,2.19c-0.095,0.532-0.604,0.886-1.136,0.79l-1.244-0.223
					C13.34,227.847,12.987,227.338,13.082,226.806z"/>
				<path class="st33" d="M17.461,230.379l0.393-2.19c0.095-0.532,0.604-0.886,1.136-0.79l1.244,0.223
					c0.532,0.095,0.886,0.604,0.79,1.136l-0.393,2.19c-0.095,0.532-0.604,0.886-1.136,0.79l-1.244-0.223
					C17.719,231.42,17.365,230.911,17.461,230.379z"/>
				<path class="st33" d="M18.464,224.787l0.393-2.19c0.095-0.532,0.604-0.886,1.136-0.79l1.244,0.223
					c0.532,0.095,0.886,0.604,0.79,1.136l-0.393,2.19c-0.095,0.532-0.604,0.886-1.136,0.79l-1.244-0.223
					C18.722,225.827,18.368,225.319,18.464,224.787z"/>
				<path class="st33" d="M19.467,219.195l0.393-2.19c0.095-0.532,0.604-0.886,1.136-0.79l1.244,0.223
					c0.532,0.095,0.886,0.604,0.79,1.136l-0.393,2.19c-0.095,0.532-0.604,0.886-1.136,0.79l-1.244-0.223
					C19.725,220.235,19.371,219.726,19.467,219.195z"/>
				<path class="st33" d="M20.47,213.602l0.393-2.19c0.095-0.532,0.604-0.886,1.136-0.79l1.244,0.223
					c0.532,0.095,0.886,0.604,0.79,1.136l-0.393,2.19c-0.095,0.532-0.604,0.886-1.136,0.79l-1.244-0.223
					C20.728,214.642,20.374,214.134,20.47,213.602z"/>
				<path class="st33" d="M21.473,208.01l0.393-2.19c0.095-0.532,0.604-0.886,1.136-0.79l1.244,0.223
					c0.532,0.095,0.886,0.604,0.79,1.136l-0.393,2.19c-0.095,0.532-0.604,0.886-1.136,0.79l-1.244-0.223
					C21.731,209.05,21.377,208.541,21.473,208.01z"/>
				<path class="st33" d="M22.476,202.417l0.393-2.19c0.095-0.532,0.604-0.886,1.136-0.79l1.244,0.223
					c0.532,0.095,0.886,0.604,0.79,1.136l-0.393,2.19c-0.095,0.532-0.604,0.886-1.136,0.79l-1.244-0.223
					C22.734,203.457,22.38,202.949,22.476,202.417z"/>
				<path class="st33" d="M23.479,196.825l0.393-2.19c0.095-0.532,0.604-0.886,1.136-0.79l1.244,0.223
					c0.532,0.095,0.886,0.604,0.79,1.136l-0.393,2.19c-0.095,0.532-0.604,0.886-1.136,0.79l-1.244-0.223
					C23.737,197.865,23.383,197.357,23.479,196.825z"/>
				<path class="st33" d="M22.051,232.776l0.393-2.19c0.095-0.532,0.604-0.886,1.136-0.79l1.244,0.223
					c0.532,0.095,0.886,0.604,0.79,1.136l-0.393,2.19c-0.095,0.532-0.604,0.886-1.136,0.79l-1.244-0.223
					C22.309,233.816,21.955,233.308,22.051,232.776z"/>
				<path class="st33" d="M21.107,238.039l0.393-2.19c0.095-0.532,0.604-0.886,1.136-0.79l1.244,0.223
					c0.532,0.095,0.886,0.604,0.79,1.136l-0.393,2.19c-0.095,0.532-0.604,0.886-1.136,0.79l-1.244-0.223
					C21.365,239.079,21.011,238.571,21.107,238.039z"/>
				<path class="st33" d="M29.602,190.671l0.393-2.19c0.095-0.532,0.604-0.886,1.136-0.79l1.244,0.223
					c0.532,0.095,0.886,0.604,0.79,1.136l-0.393,2.19c-0.095,0.532-0.604,0.886-1.136,0.79l-1.244-0.223
					C29.861,191.712,29.507,191.203,29.602,190.671z"/>
				<path class="st33" d="M22.995,227.513l0.393-2.19c0.095-0.532,0.604-0.886,1.136-0.79l1.244,0.223
					c0.532,0.095,0.886,0.604,0.79,1.136l-0.393,2.19c-0.095,0.532-0.604,0.886-1.136,0.79l-1.244-0.223
					C23.253,228.553,22.899,228.044,22.995,227.513z"/>
				<path class="st33" d="M23.939,222.25l0.393-2.19c0.095-0.532,0.604-0.886,1.136-0.79l1.244,0.223
					c0.532,0.095,0.886,0.604,0.79,1.136l-0.393,2.19c-0.095,0.532-0.604,0.886-1.136,0.79l-1.244-0.223
					C24.197,223.29,23.843,222.781,23.939,222.25z"/>
				<path class="st33" d="M24.883,216.987l0.393-2.19c0.095-0.532,0.604-0.886,1.136-0.79l1.244,0.223
					c0.532,0.095,0.886,0.604,0.79,1.136l-0.393,2.19c-0.095,0.532-0.604,0.886-1.136,0.79l-1.244-0.223
					C25.141,218.027,24.787,217.518,24.883,216.987z"/>
				<path class="st33" d="M25.826,211.724l0.393-2.19c0.095-0.532,0.604-0.886,1.136-0.79l1.244,0.223
					c0.532,0.095,0.886,0.604,0.79,1.136l-0.393,2.19c-0.095,0.532-0.604,0.886-1.136,0.79l-1.244-0.223
					C26.085,212.764,25.731,212.255,25.826,211.724z"/>
				<path class="st33" d="M26.77,206.46l0.393-2.19c0.095-0.532,0.604-0.886,1.136-0.79l1.244,0.223
					c0.532,0.095,0.886,0.604,0.79,1.136l-0.393,2.19c-0.095,0.532-0.604,0.886-1.136,0.79l-1.244-0.223
					C27.029,207.501,26.675,206.992,26.77,206.46z"/>
				<path class="st33" d="M27.714,201.197l0.393-2.19c0.095-0.532,0.604-0.886,1.136-0.79l1.244,0.223
					c0.532,0.095,0.886,0.604,0.79,1.136l-0.393,2.19c-0.095,0.532-0.604,0.886-1.136,0.79l-1.244-0.223
					C27.973,202.238,27.619,201.729,27.714,201.197z"/>
				<path class="st33" d="M28.658,195.934l0.393-2.19c0.095-0.532,0.604-0.886,1.136-0.79l1.244,0.223
					c0.532,0.095,0.886,0.604,0.79,1.136l-0.393,2.19c-0.095,0.532-0.604,0.886-1.136,0.79l-1.244-0.223
					C28.917,196.975,28.563,196.466,28.658,195.934z"/>
				<path class="st33" d="M11.337,236.533l1.217-6.783c0.095-0.532,0.604-0.886,1.136-0.79l1.244,0.223
					c0.532,0.095,0.886,0.604,0.79,1.136l-1.217,6.783c-0.095,0.532-0.604,0.886-1.136,0.79l-1.244-0.223
					C11.596,237.573,11.242,237.065,11.337,236.533z"/>
			</g>
		</g>
	</g>
	<path class="st27" d="M531.576,147.686h-13.202c-1.388,0-2.512-1.125-2.512-2.512v-3.466c0-1.388,1.125-2.512,2.512-2.512h13.202
		c1.388,0,2.512,1.125,2.512,2.512v3.466C534.089,146.561,532.964,147.686,531.576,147.686z"/>
	<path class="st10" d="M469.45,175.954l-4.559-2.632c-0.657-0.379-1.478,0.095-1.478,0.853v1.529h-4.878
		c-0.609,0-1.103,0.494-1.103,1.103c0,0.609,0.494,1.103,1.103,1.103h4.878v1.529c0,0.758,0.821,1.233,1.478,0.853l4.559-2.632
		C470.107,177.281,470.107,176.333,469.45,175.954z"/>
</g>
</svg>
