<?xml version="1.0" encoding="utf-8"?>
<!-- Generator: Adobe Illustrator 26.2.1, SVG Export Plug-In . SVG Version: 6.00 Build 0)  -->
<svg version="1.1" id="Layer_1" xmlns="http://www.w3.org/2000/svg" xmlns:xlink="http://www.w3.org/1999/xlink" x="0px" y="0px"
	 viewBox="0 0 840 280" style="enable-background:new 0 0 840 280;" xml:space="preserve">
<style type="text/css">
	.st0{fill:#F1F1F2;}
	.st1{fill:#E6E7E8;}
	.st2{fill:#D0D2D3;}
	.st3{fill:#27E22B;}
	.st4{fill:#F7931E;}
	.st5{fill:#E5E141;}
	.st6{fill:#C4C403;}
	.st7{fill:#E61515;}
	.st8{fill:#231F20;}
	.st9{fill:#6D6E70;}
	.st10{fill:#E6E6E6;}
	.st11{fill:#FFFFFF;}
	.st12{clip-path:url(#SVGID_00000077289315291271778530000012052561941962880130_);}
	.st13{fill:none;stroke:#000000;stroke-miterlimit:10;}
	.st14{fill:#EC2024;}
	.st15{clip-path:url(#SVGID_00000104677418710107246350000006147544802072118422_);}
	.st16{fill:none;stroke:#EC2024;stroke-miterlimit:10;}
	.st17{fill:#F5EA14;}
	.st18{fill:#808083;}
	.st19{fill:#221F1F;}
	.st20{fill:#EA1F27;}
	.st21{clip-path:url(#SVGID_00000067918216679600041670000017749127668025734577_);}
	.st22{fill:#F47E20;}
	.st23{fill:#69BC45;}
	.st24{fill:#B8529E;}
	.st25{fill:none;}
	.st26{fill:#FF0000;}
	.st27{fill:#F2F2F2;}
	.st28{fill:#F1F1F2;stroke:#27E22B;stroke-width:2;stroke-miterlimit:10;}
	.st29{clip-path:url(#SVGID_00000174564541650340844180000004471521789093398919_);}
	.st30{clip-path:url(#SVGID_00000031203287663341039400000015795244986153196686_);}
	.st31{clip-path:url(#SVGID_00000066480113050846021250000007096872910190722714_);}
	.st32{clip-path:url(#SVGID_00000108285808381426755320000016595782634451831192_);}
	.st33{fill:#808080;}
	.st34{fill:#4D4D4D;}
	.st35{font-family:'SegoeUI-Semibold';}
	.st36{font-size:13.4684px;}
</style>
<g>
	<g>
		<path class="st0" d="M609.66,158.798h167.57v-0.49c0-2.21-1.792-4.002-4.002-4.002H613.662c-2.21,0-4.002,1.792-4.002,4.002
			V158.798z"/>
		<path class="st0" d="M609.66,195.534h167.57v0.49c0,2.21-1.792,4.002-4.002,4.002H613.662c-2.21,0-4.002-1.792-4.002-4.002
			V195.534z"/>
	</g>
	<g>
		<g>
			<g>
				<path class="st27" d="M598.988,196.521c-2.757,0-5-2.243-5-5v-29.318c0-2.757,2.243-5,5-5h188.914c2.757,0,5,2.243,5,5v29.318
					c0,2.757-2.243,5-5,5H598.988z"/>
				<path class="st3" d="M787.902,158.203c2.206,0,4,1.794,4,4v29.318c0,2.206-1.794,4-4,4H598.988c-2.206,0-4-1.794-4-4v-29.318
					c0-2.206,1.794-4,4-4H787.902 M787.902,156.203H598.988c-3.314,0-6,2.686-6,6v29.318c0,3.314,2.686,6,6,6h188.914
					c3.314,0,6-2.686,6-6v-29.318C793.902,158.889,791.216,156.203,787.902,156.203L787.902,156.203z"/>
			</g>
			<g>
				<g>
					<g>
						<path class="st27" d="M655.472,189.846h-22.509c-1.16,0-2.1-0.94-2.1-2.1v-21.769c0-1.16,0.94-2.1,2.1-2.1h22.509
							c1.16,0,2.1,0.94,2.1,2.1v21.769C657.572,188.906,656.632,189.846,655.472,189.846z"/>
					</g>
					<g>
						<path class="st4" d="M630.863,166.234h26.709v-0.257c0-1.16-0.94-2.1-2.1-2.1h-22.509c-1.16,0-2.1,0.94-2.1,2.1V166.234z"/>
						
							<rect x="630.863" y="168.6" transform="matrix(-1 -1.224647e-16 1.224647e-16 -1 1288.4352 339.5565)" class="st4" width="26.709" height="2.357"/>
						
							<rect x="630.863" y="173.322" transform="matrix(-1 -1.224647e-16 1.224647e-16 -1 1288.4352 349.0012)" class="st4" width="26.709" height="2.357"/>
						
							<rect x="630.863" y="178.045" transform="matrix(-1 -1.224647e-16 1.224647e-16 -1 1288.4352 358.4459)" class="st4" width="26.709" height="2.357"/>
						
							<rect x="630.863" y="182.767" transform="matrix(-1 -1.224647e-16 1.224647e-16 -1 1288.4352 367.8905)" class="st4" width="26.709" height="2.357"/>
						<path class="st4" d="M632.963,189.846h22.509c1.16,0,2.1-0.94,2.1-2.1v-0.257h-26.709v0.257
							C630.863,188.906,631.803,189.846,632.963,189.846z"/>
					</g>
				</g>
				<g>
					<g>
						<path class="st27" d="M704.7,189.846H682.19c-1.16,0-2.1-0.94-2.1-2.1v-21.769c0-1.16,0.94-2.1,2.1-2.1H704.7
							c1.16,0,2.1,0.94,2.1,2.1v21.769C706.799,188.906,705.859,189.846,704.7,189.846z"/>
					</g>
					<g>
						<path class="st4" d="M680.09,166.234h26.709v-0.257c0-1.16-0.94-2.1-2.1-2.1H682.19c-1.16,0-2.1,0.94-2.1,2.1V166.234z"/>
						
							<rect x="680.09" y="168.6" transform="matrix(-1 -1.224647e-16 1.224647e-16 -1 1386.8899 339.5565)" class="st4" width="26.709" height="2.357"/>
						
							<rect x="680.09" y="173.322" transform="matrix(-1 -1.224647e-16 1.224647e-16 -1 1386.8899 349.0012)" class="st4" width="26.709" height="2.357"/>
						
							<rect x="680.09" y="178.045" transform="matrix(-1 -1.224647e-16 1.224647e-16 -1 1386.8899 358.4459)" class="st4" width="26.709" height="2.357"/>
						
							<rect x="680.09" y="182.767" transform="matrix(-1 -1.224647e-16 1.224647e-16 -1 1386.8899 367.8905)" class="st4" width="26.709" height="2.357"/>
						<path class="st4" d="M682.19,189.846H704.7c1.16,0,2.1-0.94,2.1-2.1v-0.257H680.09v0.257
							C680.09,188.906,681.031,189.846,682.19,189.846z"/>
					</g>
				</g>
				<g>
					<g>
						<path class="st27" d="M753.927,189.846h-22.509c-1.16,0-2.1-0.94-2.1-2.1v-21.769c0-1.16,0.94-2.1,2.1-2.1h22.509
							c1.16,0,2.1,0.94,2.1,2.1v21.769C756.027,188.906,755.087,189.846,753.927,189.846z"/>
					</g>
					<g>
						<path class="st4" d="M729.318,166.234h26.709v-0.257c0-1.16-0.94-2.1-2.1-2.1h-22.509c-1.16,0-2.1,0.94-2.1,2.1V166.234z"/>
						
							<rect x="729.318" y="168.6" transform="matrix(-1 -1.224647e-16 1.224647e-16 -1 1485.3447 339.5565)" class="st4" width="26.709" height="2.357"/>
						
							<rect x="729.318" y="173.322" transform="matrix(-1 -1.224647e-16 1.224647e-16 -1 1485.3447 349.0012)" class="st4" width="26.709" height="2.357"/>
						
							<rect x="729.318" y="178.045" transform="matrix(-1 -1.224647e-16 1.224647e-16 -1 1485.3447 358.4459)" class="st4" width="26.709" height="2.357"/>
						
							<rect x="729.318" y="182.767" transform="matrix(-1 -1.224647e-16 1.224647e-16 -1 1485.3447 367.8905)" class="st4" width="26.709" height="2.357"/>
						<path class="st4" d="M731.418,189.846h22.509c1.16,0,2.1-0.94,2.1-2.1v-0.257h-26.709v0.257
							C729.318,188.906,730.258,189.846,731.418,189.846z"/>
					</g>
				</g>
				<g>
					<g>
						<path class="st27" d="M674.867,189.846h-12.072c-1.16,0-2.1-0.94-2.1-2.1v-21.769c0-1.16,0.94-2.1,2.1-2.1h12.072
							c1.16,0,2.1,0.94,2.1,2.1v21.769C676.967,188.906,676.027,189.846,674.867,189.846z"/>
					</g>
					<g>
						<path class="st2" d="M660.695,166.234h16.272v-0.257c0-1.16-0.94-2.1-2.1-2.1h-12.072c-1.16,0-2.1,0.94-2.1,2.1V166.234z"/>
						
							<rect x="660.695" y="168.6" transform="matrix(-1 -1.224647e-16 1.224647e-16 -1 1337.6626 339.5565)" class="st2" width="16.272" height="2.357"/>
						
							<rect x="660.695" y="173.322" transform="matrix(-1 -1.224647e-16 1.224647e-16 -1 1337.6626 349.0012)" class="st2" width="16.272" height="2.357"/>
						
							<rect x="660.695" y="178.045" transform="matrix(-1 -1.224647e-16 1.224647e-16 -1 1337.6626 358.4459)" class="st2" width="16.272" height="2.357"/>
						
							<rect x="660.695" y="182.767" transform="matrix(-1 8.828733e-09 -8.828733e-09 -1 1337.6626 367.8905)" class="st2" width="16.272" height="2.357"/>
						<path class="st2" d="M662.795,189.846h12.072c1.16,0,2.1-0.94,2.1-2.1v-0.257h-16.272v0.257
							C660.695,188.906,661.635,189.846,662.795,189.846z"/>
					</g>
				</g>
				<g>
					<g>
						<path class="st27" d="M724.095,189.846h-12.072c-1.16,0-2.1-0.94-2.1-2.1v-21.769c0-1.16,0.94-2.1,2.1-2.1h12.072
							c1.16,0,2.1,0.94,2.1,2.1v21.769C726.195,188.906,725.254,189.846,724.095,189.846z"/>
					</g>
					<g>
						<path class="st2" d="M709.923,166.234h16.272v-0.257c0-1.16-0.94-2.1-2.1-2.1h-12.072c-1.16,0-2.1,0.94-2.1,2.1V166.234z"/>
						
							<rect x="709.923" y="168.6" transform="matrix(-1 -1.224647e-16 1.224647e-16 -1 1436.1173 339.5565)" class="st2" width="16.272" height="2.357"/>
						
							<rect x="709.923" y="173.322" transform="matrix(-1 -1.224647e-16 1.224647e-16 -1 1436.1173 349.0012)" class="st2" width="16.272" height="2.357"/>
						
							<rect x="709.923" y="178.045" transform="matrix(-1 -1.224647e-16 1.224647e-16 -1 1436.1173 358.4459)" class="st2" width="16.272" height="2.357"/>
						
							<rect x="709.923" y="182.767" transform="matrix(-1 8.828733e-09 -8.828733e-09 -1 1436.1173 367.8905)" class="st2" width="16.272" height="2.357"/>
						<path class="st2" d="M712.023,189.846h12.072c1.16,0,2.1-0.94,2.1-2.1v-0.257h-16.272v0.257
							C709.923,188.906,710.863,189.846,712.023,189.846z"/>
					</g>
				</g>
				<g>
					<g>
						<path class="st27" d="M625.406,189.846h-21.434c-1.16,0-2.1-0.94-2.1-2.1v-21.769c0-1.16,0.94-2.1,2.1-2.1h21.434
							c1.16,0,2.1,0.94,2.1,2.1v21.769C627.506,188.906,626.565,189.846,625.406,189.846z"/>
					</g>
					<g>
						<path class="st2" d="M627.506,166.234h-25.633v-0.257c0-1.16,0.94-2.1,2.1-2.1h21.434c1.16,0,2.1,0.94,2.1,2.1V166.234z"/>
						<rect x="601.872" y="168.6" class="st2" width="25.633" height="2.357"/>
						<rect x="601.872" y="173.322" class="st2" width="25.633" height="2.357"/>
						<rect x="601.872" y="178.045" class="st2" width="25.633" height="2.357"/>
						<rect x="601.872" y="182.767" class="st2" width="25.633" height="2.357"/>
						<path class="st2" d="M625.406,189.846h-21.434c-1.16,0-2.1-0.94-2.1-2.1v-0.257h25.633v0.257
							C627.506,188.906,626.565,189.846,625.406,189.846z"/>
					</g>
				</g>
				<g>
					<g>
						<path class="st27" d="M782.918,189.846h-21.434c-1.16,0-2.1-0.94-2.1-2.1v-21.769c0-1.16,0.94-2.1,2.1-2.1h21.434
							c1.16,0,2.1,0.94,2.1,2.1v21.769C785.018,188.906,784.078,189.846,782.918,189.846z"/>
					</g>
					<g>
						<path class="st2" d="M785.018,166.234h-25.633v-0.257c0-1.16,0.94-2.1,2.1-2.1h21.434c1.16,0,2.1,0.94,2.1,2.1V166.234z"/>
						<rect x="759.384" y="168.6" class="st2" width="25.633" height="2.357"/>
						<rect x="759.384" y="173.322" class="st2" width="25.633" height="2.357"/>
						<rect x="759.384" y="178.045" class="st2" width="25.633" height="2.357"/>
						<rect x="759.384" y="182.767" class="st2" width="25.633" height="2.357"/>
						<path class="st2" d="M782.918,189.846h-21.434c-1.16,0-2.1-0.94-2.1-2.1v-0.257h25.633v0.257
							C785.018,188.906,784.078,189.846,782.918,189.846z"/>
					</g>
				</g>
			</g>
		</g>
		<g>
			<g>
				<path class="st1" d="M648.585,220.118h-21.808c-1.458,0-2.64-1.182-2.64-2.64v-17.294h34.635L648.585,220.118z"/>
				<polygon class="st2" points="642.6,220.118 658.772,220.118 658.772,200.184 624.137,200.184 				"/>
				<path class="st28" d="M625.876,270.336h26.978c3.314,0,6-2.686,6-6v-46.7h-32.978c-3.314,0-6,2.686-6,6v40.7
					C619.876,267.65,622.563,270.336,625.876,270.336z"/>
				<text transform="matrix(1.0741 0 0 1 632.9036 248.7284)" class="st34 st35 st36">01</text>
			</g>
			<g>
				<path class="st1" d="M697.495,220.118h-21.808c-1.458,0-2.64-1.182-2.64-2.64v-17.294h34.635L697.495,220.118z"/>
				<polygon class="st2" points="691.51,220.118 707.682,220.118 707.682,200.184 673.047,200.184 				"/>
				<path class="st28" d="M674.786,270.336h26.978c3.314,0,6-2.686,6-6v-46.7h-32.978c-3.314,0-6,2.686-6,6v40.7
					C668.786,267.65,671.473,270.336,674.786,270.336z"/>
				<text transform="matrix(1.0741 0 0 1 680.4895 248.702)" class="st34 st35 st36">03</text>
			</g>
			<g>
				<path class="st1" d="M746.405,220.118h-21.808c-1.458,0-2.64-1.182-2.64-2.64v-17.294h34.635L746.405,220.118z"/>
				<polygon class="st2" points="740.42,220.118 756.592,220.118 756.592,200.184 721.957,200.184 				"/>
				<path class="st28" d="M723.697,270.336h26.978c3.314,0,6-2.686,6-6v-46.7h-32.978c-3.314,0-6,2.686-6,6v40.7
					C717.697,267.65,720.383,270.336,723.697,270.336z"/>
				<text transform="matrix(1.0741 0 0 1 729.3567 248.6952)" class="st34 st35 st36">05</text>
			</g>
			<g>
				<path class="st1" d="M648.585,134.373h-21.808c-1.458,0-2.64,1.182-2.64,2.64v17.294h34.635L648.585,134.373z"/>
				<polygon class="st2" points="642.6,134.373 658.772,134.373 658.772,154.307 624.137,154.307 				"/>
				<path class="st28" d="M625.876,84.155h26.978c3.314,0,6,2.686,6,6v46.7h-32.978c-3.314,0-6-2.686-6-6v-40.7
					C619.876,86.841,622.563,84.155,625.876,84.155z"/>
				<text transform="matrix(1.0741 0 0 1 631.552 115.2206)" class="st34 st35 st36">02</text>
			</g>
			<g>
				<path class="st1" d="M697.495,134.373h-21.808c-1.458,0-2.64,1.182-2.64,2.64v17.294h34.635L697.495,134.373z"/>
				<polygon class="st2" points="691.51,134.373 707.682,134.373 707.682,154.307 673.047,154.307 				"/>
				<path class="st28" d="M674.786,84.155h26.978c3.314,0,6,2.686,6,6v46.7h-32.978c-3.314,0-6-2.686-6-6v-40.7
					C668.786,86.841,671.473,84.155,674.786,84.155z"/>
				<text transform="matrix(1.0741 0 0 1 679.9631 115.2206)" class="st34 st35 st36">04</text>
			</g>
			<g>
				<path class="st1" d="M746.405,134.373h-21.808c-1.458,0-2.64,1.182-2.64,2.64v17.294h34.635L746.405,134.373z"/>
				<polygon class="st2" points="740.42,134.373 756.592,134.373 756.592,154.307 721.957,154.307 				"/>
				<path class="st28" d="M723.697,84.155h26.978c3.314,0,6,2.686,6,6v46.7h-32.978c-3.314,0-6-2.686-6-6v-40.7
					C717.697,86.841,720.383,84.155,723.697,84.155z"/>
				<text transform="matrix(1.0741 0 0 1 729.135 115.2167)" class="st34 st35 st36">06</text>
			</g>
		</g>
	</g>
	<g>
		<path class="st0" d="M344.749,202.729c-2.757,0-5-2.243-5-5v-41.843c0-2.757,2.243-5,5-5h237.749c2.757,0,5,2.243,5,5v41.843
			c0,2.757-2.243,5-5,5H344.749z"/>
		<path class="st3" d="M582.499,151.885c2.206,0,4,1.794,4,4v41.843c0,2.206-1.794,4-4,4H344.749c-2.206,0-4-1.794-4-4v-41.843
			c0-2.206,1.794-4,4-4H582.499 M582.499,149.885H344.749c-3.313,0-6,2.686-6,6v41.843c0,3.314,2.687,6,6,6h237.749
			c3.314,0,6-2.686,6-6v-41.843C588.499,152.572,585.812,149.885,582.499,149.885L582.499,149.885z"/>
	</g>
	<g>
		<g>
			<path class="st0" d="M804.391,202.529c-2.757,0-5-2.243-5-5v-40.7c0-2.757,2.243-5,5-5h24.289c2.757,0,5,2.243,5,5v40.7
				c0,2.757-2.243,5-5,5H804.391z"/>
			<g>
				<path class="st3" d="M828.681,152.83c2.206,0,4,1.794,4,4v40.7c0,2.206-1.794,4-4,4h-24.289c-2.206,0-4-1.794-4-4v-40.7
					c0-2.206,1.794-4,4-4H828.681 M828.681,150.83h-24.289c-3.314,0-6,2.686-6,6v40.7c0,3.314,2.686,6,6,6h24.289
					c3.313,0,6-2.686,6-6v-40.7C834.681,153.516,831.994,150.83,828.681,150.83L828.681,150.83z"/>
			</g>
		</g>
		<text transform="matrix(1.0741 0 0 1 808.6155 181.8944)" class="st34 st35 st36">07</text>
	</g>
	<path class="st1" d="M437.972,212.101h-49.816c-3.314,0-6-2.686-6-6v-58.709c0-3.314,2.686-6,6-6h49.816c3.314,0,6,2.686,6,6
		v58.709C443.972,209.414,441.286,212.101,437.972,212.101z"/>
	<g>
		<path class="st0" d="M355.294,146.229h0.94v3.739h6.465v-3.739h0.94c0.422,0,0.764-0.342,0.764-0.764
			c0-0.422-0.342-0.764-0.764-0.764h-0.94h-6.465h-0.94c-0.422,0-0.764,0.342-0.764,0.764
			C354.53,145.887,354.872,146.229,355.294,146.229z"/>
		<path class="st5" d="M356.616,141.272h5.701v2.789c0,1.403-1.137,2.54-2.54,2.54h-0.622c-1.403,0-2.54-1.137-2.54-2.54V141.272z"
			/>
		<path class="st6" d="M358.137,140.838h2.658c0.446,0,0.808,0.362,0.808,0.808v0.284c0,0.835-0.677,1.511-1.511,1.511h-1.251
			c-0.835,0-1.511-0.677-1.511-1.511v-0.284C357.33,141.2,357.691,140.838,358.137,140.838z"/>
		<circle class="st7" cx="359.467" cy="141.272" r="1.379"/>
	</g>
	<g>
		<path class="st0" d="M572.534,146.229h0.94v3.739h6.465v-3.739h0.94c0.422,0,0.764-0.342,0.764-0.764
			c0-0.422-0.342-0.764-0.764-0.764h-0.94h-6.465h-0.94c-0.422,0-0.764,0.342-0.764,0.764
			C571.77,145.887,572.112,146.229,572.534,146.229z"/>
		<path class="st5" d="M573.856,141.272h5.701v2.789c0,1.403-1.137,2.54-2.54,2.54h-0.622c-1.403,0-2.54-1.137-2.54-2.54V141.272z"
			/>
		<path class="st6" d="M575.377,140.838h2.658c0.446,0,0.808,0.362,0.808,0.808v0.284c0,0.835-0.677,1.511-1.511,1.511h-1.251
			c-0.835,0-1.511-0.677-1.511-1.511v-0.284C574.57,141.2,574.931,140.838,575.377,140.838z"/>
		<circle class="st7" cx="576.706" cy="141.272" r="1.379"/>
	</g>
	<g>
		<path class="st0" d="M572.534,207.385h0.94v-3.739h6.465v3.739h0.94c0.422,0,0.764,0.342,0.764,0.764
			c0,0.422-0.342,0.764-0.764,0.764h-0.94h-6.465h-0.94c-0.422,0-0.764-0.342-0.764-0.764
			C571.77,207.727,572.112,207.385,572.534,207.385z"/>
		<path class="st5" d="M573.856,212.342h5.701v-2.789c0-1.403-1.137-2.54-2.54-2.54h-0.622c-1.403,0-2.54,1.137-2.54,2.54V212.342z"
			/>
		<path class="st6" d="M575.377,212.776h2.658c0.446,0,0.808-0.362,0.808-0.808v-0.284c0-0.835-0.677-1.511-1.511-1.511h-1.251
			c-0.835,0-1.511,0.677-1.511,1.511v0.284C574.57,212.414,574.931,212.776,575.377,212.776z"/>
		<circle class="st7" cx="576.706" cy="212.342" r="1.379"/>
	</g>
	<g>
		<path class="st0" d="M265.708,171.882h-76.782V151.91c0-3.314,2.686-6,6-6h64.782c3.314,0,6,2.686,6,6V171.882z"/>
		<path class="st0" d="M259.708,203.924h-64.782c-3.314,0-6-2.686-6-6v-19.971h76.782v19.971
			C265.708,201.238,263.022,203.924,259.708,203.924z"/>
		<path class="st1" d="M206.562,180.656h-5.967c-0.581,0-1.052-0.471-1.052-1.052v-3.304c0-0.581,0.471-1.052,1.052-1.052h5.967
			c0.581,0,1.052,0.471,1.052,1.052v3.304C207.613,180.186,207.143,180.656,206.562,180.656z"/>
		<path class="st1" d="M243.868,180.656h-5.967c-0.581,0-1.052-0.471-1.052-1.052v-3.304c0-0.581,0.471-1.052,1.052-1.052h5.967
			c0.581,0,1.052,0.471,1.052,1.052v3.304C244.92,180.186,244.449,180.656,243.868,180.656z"/>
		<path class="st1" d="M253.476,174.585h-5.967c-0.581,0-1.052-0.471-1.052-1.052v-3.304c0-0.581,0.471-1.052,1.052-1.052h5.967
			c0.581,0,1.052,0.471,1.052,1.052v3.304C254.527,174.115,254.056,174.585,253.476,174.585z"/>
		<path class="st1" d="M216.059,174.585h-5.967c-0.581,0-1.052-0.471-1.052-1.052v-3.304c0-0.581,0.471-1.052,1.052-1.052h5.967
			c0.581,0,1.052,0.471,1.052,1.052v3.304C217.111,174.115,216.64,174.585,216.059,174.585z"/>
	</g>
	<path class="st0" d="M84.777,202.305h93.659c3.314,0,6-2.686,6-6v-7.214c0-3.314-2.686-6-6-6H84.777V202.305z"/>
	<path class="st1" d="M75.26,205.708h6.627c1.657,0,3-1.343,3-3v-20.022c0-1.657-1.343-3-3-3H75.26c-1.657,0-3,1.343-3,3v20.022
		C72.26,204.365,73.603,205.708,75.26,205.708z"/>
	<ellipse class="st2" cx="78.574" cy="192.697" rx="4.117" ry="5.49"/>
	<g>
		<path class="st0" d="M139.639,141.421V65.695c0-4.339,3.518-7.857,7.857-7.857h0c3.099,0,5.612-2.513,5.612-5.612V16.594
			c0-3.719-3.015-6.734-6.734-6.734H90.743c-3.719,0-6.734,3.015-6.734,6.734v153.674c0,3.719,3.015,6.734,6.734,6.734h24.595h37.77
			h24.595c3.719,0,6.734-3.015,6.734-6.734v-17.624c0-3.719-3.015-6.734-6.734-6.734h-33.574
			C141.649,145.91,139.639,143.9,139.639,141.421z"/>
		<g>
			<path class="st10" d="M124.405,168.931H96.641c-2.251,0-4.076-1.825-4.076-4.076v-64.279c0-2.251,1.825-4.076,4.076-4.076h27.764
				c2.251,0,4.076,1.825,4.076,4.076v64.279C128.481,167.106,126.656,168.931,124.405,168.931z"/>
			<path class="st10" d="M124.405,86.679H96.641c-2.251,0-4.076-1.825-4.076-4.076V22.007c0-2.251,1.825-4.076,4.076-4.076h27.764
				c2.251,0,4.076,1.825,4.076,4.076v60.596C128.481,84.854,126.656,86.679,124.405,86.679z"/>
		</g>
		<path class="st0" d="M148.673,142.206h-1.101c-2.485,0-4.5-2.015-4.5-4.5V65.895c0-2.485,2.015-4.5,4.5-4.5h1.101
			c2.485,0,4.5,2.015,4.5,4.5v71.811C153.173,140.191,151.158,142.206,148.673,142.206z"/>
	</g>
	<g>
		<path class="st1" d="M61.279,216.955l-0.265-0.265c-0.599-0.599-0.599-1.569,0-2.167l8.443-8.443c0.599-0.599,1.569-0.599,2.167,0
			l0.265,0.265c0.599,0.599,0.599,1.569,0,2.167l-8.443,8.443C62.847,217.554,61.877,217.554,61.279,216.955z"/>
		<circle class="st1" cx="58.353" cy="218.28" r="5.475"/>
		<path class="st8" d="M54.18,193.861c-0.832-0.165-1.642,0.375-1.807,1.208l-2.169,10.929l-7.768-4.089
			c-1.023-0.539-2.275,0.064-2.493,1.2l-4.337,22.658c-0.213,1.116,0.693,2.129,1.825,2.04l8.561-0.672
			c0.006-0.001,0.011-0.004,0.017-0.004l-2.187,11.018c-0.165,0.832,0.376,1.641,1.209,1.807c0.833,0.165,1.642-0.376,1.807-1.208
			l6.579-21.839l1.971-21.24C55.553,194.835,55.013,194.026,54.18,193.861z"/>
		<g>
			<path class="st9" d="M26.29,242.764L12.4,240.273c-1.755-0.315-2.922-1.993-2.608-3.747l9.094-50.707
				c0.315-1.755,1.993-2.922,3.747-2.608l13.891,2.491c1.755,0.315,2.922,1.993,2.608,3.747l-9.094,50.707
				C29.723,241.911,28.045,243.079,26.29,242.764z"/>
			<g>
				<path class="st33" d="M16.368,221.004l3.363-18.752c0.095-0.532,0.604-0.886,1.136-0.79l1.244,0.223
					c0.532,0.095,0.886,0.604,0.79,1.136l-3.363,18.752c-0.095,0.532-0.604,0.886-1.136,0.79l-1.244-0.223
					C16.627,222.044,16.273,221.536,16.368,221.004z"/>
				<path class="st33" d="M20.293,199.119l0.393-2.19c0.095-0.532,0.604-0.886,1.136-0.79l1.244,0.223
					c0.532,0.095,0.886,0.604,0.79,1.136l-0.393,2.19c-0.095,0.532-0.604,0.886-1.136,0.79l-1.244-0.223
					C20.552,200.159,20.198,199.651,20.293,199.119z"/>
				<path class="st33" d="M26.641,191.715l0.701-3.91c0.095-0.532,0.604-0.886,1.136-0.79l1.244,0.223
					c0.532,0.095,0.886,0.604,0.79,1.136l-0.701,3.91c-0.095,0.532-0.604,0.886-1.136,0.79l-1.244-0.223
					C26.9,192.755,26.546,192.247,26.641,191.715z"/>
				<path class="st33" d="M18.411,237.601l0.701-3.91c0.095-0.532,0.604-0.886,1.136-0.79l1.244,0.223
					c0.532,0.095,0.886,0.604,0.79,1.136l-0.701,3.91c-0.095,0.532-0.604,0.886-1.136,0.79l-1.244-0.223
					C18.67,238.641,18.316,238.133,18.411,237.601z"/>
				<path class="st33" d="M21.263,193.716l1.217-6.783c0.095-0.532,0.604-0.886,1.136-0.79l1.244,0.223
					c0.532,0.095,0.886,0.604,0.79,1.136l-1.217,6.783c-0.095,0.532-0.604,0.886-1.136,0.79l-1.244-0.223
					C21.521,194.756,21.167,194.247,21.263,193.716z"/>
				<path class="st33" d="M15.293,227.002l0.393-2.19c0.095-0.532,0.604-0.886,1.136-0.79l1.244,0.223
					c0.532,0.095,0.886,0.604,0.79,1.136l-0.393,2.19c-0.095,0.532-0.604,0.886-1.136,0.79l-1.244-0.223
					C15.551,228.042,15.197,227.534,15.293,227.002z"/>
				<path class="st33" d="M19.671,230.575l0.393-2.19c0.095-0.532,0.604-0.886,1.136-0.79l1.244,0.223
					c0.532,0.095,0.886,0.604,0.79,1.136l-0.393,2.19c-0.095,0.532-0.604,0.886-1.136,0.79l-1.244-0.223
					C19.93,231.615,19.576,231.107,19.671,230.575z"/>
				<path class="st33" d="M20.674,224.983l0.393-2.19c0.095-0.532,0.604-0.886,1.136-0.79l1.244,0.223
					c0.532,0.095,0.886,0.604,0.79,1.136l-0.393,2.19c-0.095,0.532-0.604,0.886-1.136,0.79l-1.244-0.223
					C20.933,226.023,20.579,225.514,20.674,224.983z"/>
				<path class="st33" d="M21.677,219.39l0.393-2.19c0.095-0.532,0.604-0.886,1.136-0.79l1.244,0.223
					c0.532,0.095,0.886,0.604,0.79,1.136l-0.393,2.19c-0.095,0.532-0.604,0.886-1.136,0.79l-1.244-0.223
					C21.936,220.43,21.582,219.922,21.677,219.39z"/>
				<path class="st33" d="M22.681,213.798l0.393-2.19c0.095-0.532,0.604-0.886,1.136-0.79l1.244,0.223
					c0.532,0.095,0.886,0.604,0.79,1.136l-0.393,2.19c-0.095,0.532-0.604,0.886-1.136,0.79l-1.244-0.223
					C22.939,214.838,22.585,214.33,22.681,213.798z"/>
				<path class="st33" d="M23.684,208.205l0.393-2.19c0.095-0.532,0.604-0.886,1.136-0.79l1.244,0.223
					c0.532,0.095,0.886,0.604,0.79,1.136l-0.393,2.19c-0.095,0.532-0.604,0.886-1.136,0.79l-1.244-0.223
					C23.942,209.246,23.588,208.737,23.684,208.205z"/>
				<path class="st33" d="M24.687,202.613l0.393-2.19c0.095-0.532,0.604-0.886,1.136-0.79l1.244,0.223
					c0.532,0.095,0.886,0.604,0.79,1.136l-0.393,2.19c-0.095,0.532-0.604,0.886-1.136,0.79l-1.244-0.223
					C24.945,203.653,24.591,203.145,24.687,202.613z"/>
				<path class="st33" d="M25.69,197.021l0.393-2.19c0.095-0.532,0.604-0.886,1.136-0.79l1.244,0.223
					c0.532,0.095,0.886,0.604,0.79,1.136l-0.393,2.19c-0.095,0.532-0.604,0.886-1.136,0.79l-1.244-0.223
					C25.948,198.061,25.594,197.552,25.69,197.021z"/>
				<path class="st33" d="M24.261,232.971l0.393-2.19c0.095-0.532,0.604-0.886,1.136-0.79l1.244,0.223
					c0.532,0.095,0.886,0.604,0.79,1.136l-0.393,2.19c-0.095,0.532-0.604,0.886-1.136,0.79l-1.244-0.223
					C24.52,234.012,24.166,233.503,24.261,232.971z"/>
				<path class="st33" d="M23.317,238.234l0.393-2.19c0.095-0.532,0.604-0.886,1.136-0.79l1.244,0.223
					c0.532,0.095,0.886,0.604,0.79,1.136l-0.393,2.19c-0.095,0.532-0.604,0.886-1.136,0.79l-1.244-0.223
					C23.576,239.275,23.222,238.766,23.317,238.234z"/>
				<path class="st33" d="M31.813,190.867l0.393-2.19c0.095-0.532,0.604-0.886,1.136-0.79l1.244,0.223
					c0.532,0.095,0.886,0.604,0.79,1.136l-0.393,2.19c-0.095,0.532-0.604,0.886-1.136,0.79l-1.244-0.223
					C32.071,191.907,31.718,191.399,31.813,190.867z"/>
				<path class="st33" d="M25.205,227.708l0.393-2.19c0.095-0.532,0.604-0.886,1.136-0.79l1.244,0.223
					c0.532,0.095,0.886,0.604,0.79,1.136l-0.393,2.19c-0.095,0.532-0.604,0.886-1.136,0.79l-1.244-0.223
					C25.464,228.749,25.11,228.24,25.205,227.708z"/>
				<path class="st33" d="M26.149,222.445l0.393-2.19c0.095-0.532,0.604-0.886,1.136-0.79l1.244,0.223
					c0.532,0.095,0.886,0.604,0.79,1.136l-0.393,2.19c-0.095,0.532-0.604,0.886-1.136,0.79l-1.244-0.223
					C26.408,223.486,26.054,222.977,26.149,222.445z"/>
				<path class="st33" d="M27.093,217.182l0.393-2.19c0.095-0.532,0.604-0.886,1.136-0.79l1.244,0.223
					c0.532,0.095,0.886,0.604,0.79,1.136l-0.393,2.19c-0.095,0.532-0.604,0.886-1.136,0.79l-1.244-0.223
					C27.352,218.222,26.998,217.714,27.093,217.182z"/>
				<path class="st33" d="M28.037,211.919l0.393-2.19c0.095-0.532,0.604-0.886,1.136-0.79l1.244,0.223
					c0.532,0.095,0.886,0.604,0.79,1.136l-0.393,2.19c-0.095,0.532-0.604,0.886-1.136,0.79l-1.244-0.223
					C28.296,212.959,27.942,212.451,28.037,211.919z"/>
				<path class="st33" d="M28.981,206.656l0.393-2.19c0.095-0.532,0.604-0.886,1.136-0.79l1.244,0.223
					c0.532,0.095,0.886,0.604,0.79,1.136l-0.393,2.19c-0.095,0.532-0.604,0.886-1.136,0.79l-1.244-0.223
					C29.239,207.696,28.886,207.188,28.981,206.656z"/>
				<path class="st33" d="M29.925,201.393l0.393-2.19c0.095-0.532,0.604-0.886,1.136-0.79l1.244,0.223
					c0.532,0.095,0.886,0.604,0.79,1.136l-0.393,2.19c-0.095,0.532-0.604,0.886-1.136,0.79l-1.244-0.223
					C30.183,202.433,29.83,201.925,29.925,201.393z"/>
				<path class="st33" d="M30.869,196.13l0.393-2.19c0.095-0.532,0.604-0.886,1.136-0.79l1.244,0.223
					c0.532,0.095,0.886,0.604,0.79,1.136l-0.393,2.19c-0.095,0.532-0.604,0.886-1.136,0.79l-1.244-0.223
					C31.127,197.17,30.774,196.662,30.869,196.13z"/>
				<path class="st33" d="M13.548,236.729l1.217-6.783c0.095-0.532,0.604-0.886,1.136-0.79l1.244,0.223
					c0.532,0.095,0.886,0.604,0.79,1.136l-1.217,6.783c-0.095,0.532-0.604,0.886-1.136,0.79l-1.244-0.223
					C13.807,237.769,13.453,237.26,13.548,236.729z"/>
			</g>
		</g>
	</g>
	<path class="st27" d="M531.787,147.686h-13.202c-1.388,0-2.512-1.125-2.512-2.512v-3.466c0-1.388,1.125-2.512,2.512-2.512h13.202
		c1.388,0,2.512,1.125,2.512,2.512v3.466C534.299,146.561,533.174,147.686,531.787,147.686z"/>
	<path class="st10" d="M469.661,175.954l-4.559-2.632c-0.657-0.379-1.478,0.095-1.478,0.853v1.529h-4.878
		c-0.609,0-1.103,0.494-1.103,1.103c0,0.609,0.494,1.103,1.103,1.103h4.878v1.529c0,0.758,0.821,1.233,1.478,0.853l4.559-2.632
		C470.318,177.281,470.318,176.333,469.661,175.954z"/>
	<g data-toggle="tooltip" data-html="true" title="Camera">
		<path class="st18 device-5" d="M401.735,140.765c-0.896-1.199-4.532-6.223-4.532-8.804c0-2.499,2.033-4.532,4.532-4.532
			s4.532,2.033,4.532,4.532C406.267,134.542,402.631,139.566,401.735,140.765z"/>
		<path class="st19" d="M401.735,127.679c2.361,0,4.282,1.921,4.282,4.282c0,2.347-3.154,6.848-4.282,8.384
			c-1.128-1.536-4.282-6.037-4.282-8.384C397.453,129.6,399.374,127.679,401.735,127.679 M401.735,127.179
			c-2.641,0-4.782,2.141-4.782,4.782c0,3.05,4.782,9.218,4.782,9.218s4.782-6.168,4.782-9.218
			C406.517,129.32,404.376,127.179,401.735,127.179L401.735,127.179z"/>
	</g>
	<g data-toggle="tooltip" data-html="true" title="Main PLC">
		<rect x="458.838" y="144.679" class="st11" width="14.426" height="7.207"/>
		<g>
			<path class="st8" d="M472.769,145.174v6.267h-13.436v-6.267H472.769 M473.264,144.679h-14.426v7.257h14.426V144.679
				L473.264,144.679z"/>
			<g>
				<polygon class="st8 device-mainPlc-Client" points="458.838,151.886 473.264,151.886 473.264,144.679 				"/>
			</g>
		</g>
	</g>
	<g data-toggle="tooltip" data-html="true" title="Estop Loop Open<br>E-STOP_LOOP_CLOSED" transform="translate(337,3)">
		<path  class="st11" id="estop-99" d="M108.363,137.773v10.864h10.865V137.773Zm5.432,9.054a3.622,3.622,0,1,1,3.622-3.622A3.622,3.622,0,0,1,113.8,146.827Z"></path>
		<path d="M118.728,138.273v9.864h-9.865v-9.864h9.865m.5-.5H108.363v10.864h10.865V137.773Z"></path>
		<path d="M113.8,140.584a2.622,2.622,0,1,1-2.621,2.621,2.625,2.625,0,0,1,2.621-2.621m0-1a3.622,3.622,0,1,0,3.622,3.621,3.621,3.621,0,0,0-3.622-3.621Z"></path>
	</g>

	<g data-toggle="tooltip" data-html="true" title="Height Sensor">
		<rect x="364.533" y="144.679" class="st11" width="14.426" height="7.207"/>
		<g>
			<path class="st8" d="M378.465,145.174v6.267h-13.436v-6.267H378.465 M378.96,144.679h-14.426v7.257h14.426V144.679
				L378.96,144.679z"/>
			<g>
				<polygon class="st8 device-4" points="364.533,151.886 378.96,151.886 378.96,144.679 				"/>
			</g>
		</g>
	</g>
	<g data-toggle="tooltip" data-html="true" title="Feeder">
		<rect x="133.111" y="124.915" class="st11" width="14.426" height="7.207"/>
		<g>
			<path class="st8" d="M147.042,125.41v6.267h-13.436v-6.267H147.042 M147.537,124.915h-14.426v7.257h14.426V124.915
				L147.537,124.915z"/>
			<g>
				<polygon class="st8 device-3" points="133.111,132.122 147.537,132.122 147.537,124.915 				"/>
			</g>
		</g>
	</g>
	<g data-toggle="tooltip" data-html="true" title="360 Server">
		<rect x="14.007" y="9.859" class="st11" width="14.426" height="7.207"/>
		<g>
			<path class="st8" d="M27.938,10.354v6.267H14.502v-6.267H27.938 M28.433,9.859H14.007v7.257h14.426V9.859L28.433,9.859z"/>
			<g>
				<polygon class="st8 device-threeSixtyClient" points="14.007,17.066 28.433,17.066 28.433,9.859 				"/>
			</g>
		</g>
	</g>
	<g>
		<g>
			<path class="st27" d="M334.75,171.882h-22.738V145.91h16.738c3.314,0,6,2.686,6,6V171.882z"/>
			<path class="st27" d="M334.75,177.953h-22.738v25.971h16.738c3.314,0,6-2.686,6-6V177.953z"/>
			<path class="st10" d="M326.355,182.065h-5.949c-0.581,0-1.052-0.471-1.052-1.052v-12.193c0-0.581,0.471-1.052,1.052-1.052h5.949
				c0.581,0,1.052,0.471,1.052,1.052v12.193C327.406,181.595,326.935,182.065,326.355,182.065z"/>
		</g>
		<g>
			<path class="st3" d="M328.749,147.91c2.206,0,4,1.794,4,4v46.014c0,2.206-1.794,4-4,4h-14.738V147.91H328.749 M328.749,145.91
				h-16.738v58.014h16.738c3.314,0,6-2.686,6-6V151.91C334.749,148.597,332.063,145.91,328.749,145.91L328.749,145.91z"/>
		</g>
		<g>
			<path class="st0" d="M308.011,171.882h-37.796V151.91c0-3.314,2.686-6,6-6h31.796V171.882z"/>
			<path class="st0" d="M270.215,177.953h37.796v25.971h-31.796c-3.314,0-6-2.686-6-6V177.953z"/>
			<path class="st1" d="M292.087,182.065h-5.949c-0.581,0-1.052-0.471-1.052-1.052v-12.193c0-0.581,0.471-1.052,1.052-1.052h5.949
				c0.581,0,1.052,0.471,1.052,1.052v12.193C293.139,181.595,292.668,182.065,292.087,182.065z"/>
		</g>
	</g>
</g>
</svg>
